<svg width="24" height="24" viewBox="0 0 24 24" fill="none" xmlns="http://www.w3.org/2000/svg">
<path d="M6.23799 0.000451953C4.6353 0.000451953 3.04118 0.708917 1.82622 2.13108C-0.603705 4.97542 -0.610529 9.54064 1.81653 12.3871L11.5383 23.7913C11.7735 24.0696 12.2208 24.0696 12.456 23.7913C15.6988 19.995 18.9343 16.1944 22.1777 12.3978C24.6074 9.55325 24.6074 4.98577 22.1777 2.14181C19.748 -0.702778 15.7744 -0.702778 13.3448 2.14181L12.0025 3.69854L10.6602 2.13071C9.35027 0.59126 7.72733 -0.00762344 6.23856 7.31587e-05L6.23799 0.000451953ZM6.23799 1.39158C7.501 1.39158 8.77056 1.96553 9.75159 3.11391L11.5479 5.22266C11.7832 5.50088 12.2305 5.50088 12.4657 5.22266L14.2521 3.12502C16.2141 0.828278 19.3074 0.828278 21.2696 3.12502C23.2314 5.42176 23.2314 9.13057 21.2696 11.4272C18.181 15.0431 15.0908 18.6639 12.0024 22.2795L2.73528 11.4159C0.774808 9.11644 0.773511 5.41034 2.73528 3.11366C3.71631 1.96529 4.97594 1.39133 6.23895 1.39133L6.23799 1.39158Z" fill="#D2D1D1"/>
</svg>
