<svg width="18" height="17" viewBox="0 0 18 17" fill="none" xmlns="http://www.w3.org/2000/svg">
<mask id="path-1-outside-1_5_153" maskUnits="userSpaceOnUse" x="0" y="0" width="18" height="17" fill="black">
<rect fill="white" width="16" height="15"/>
<path d="M7.91933 13.9812C7.94445 13.9943 7.97246 14 7.99974 14C8.02703 14 8.05504 13.9935 8.08016 13.9812C10.4566 12.7846 15 8.36694 15 5.02712C15 2.07207 12.6085 1 11.0011 1C9.58754 1 8.39641 2.13516 8 2.55894C7.60445 2.13516 6.41332 1 4.99886 1C3.39138 1 1 2.07223 1 5.02712C1 8.36694 5.5441 12.7845 7.91984 13.9812H7.91933ZM4.99859 1.36131C6.53001 1.36131 7.84816 2.92884 7.86189 2.94483C7.93004 3.02654 8.06934 3.02654 8.13761 2.94483C8.15119 2.92897 9.46878 1.36131 11.0009 1.36131C12.4642 1.36131 14.641 2.33742 14.641 5.02712C14.641 8.24981 10.092 12.5134 7.99992 13.6162C5.90769 12.5136 1.35854 8.24981 1.35854 5.02712C1.35854 2.33738 3.53539 1.36131 4.99862 1.36131H4.99859Z"/>
</mask>
<path d="M7.91933 13.9812C7.94445 13.9943 7.97246 14 7.99974 14C8.02703 14 8.05504 13.9935 8.08016 13.9812C10.4566 12.7846 15 8.36694 15 5.02712C15 2.07207 12.6085 1 11.0011 1C9.58754 1 8.39641 2.13516 8 2.55894C7.60445 2.13516 6.41332 1 4.99886 1C3.39138 1 1 2.07223 1 5.02712C1 8.36694 5.5441 12.7845 7.91984 13.9812H7.91933ZM4.99859 1.36131C6.53001 1.36131 7.84816 2.92884 7.86189 2.94483C7.93004 3.02654 8.06934 3.02654 8.13761 2.94483C8.15119 2.92897 9.46878 1.36131 11.0009 1.36131C12.4642 1.36131 14.641 2.33742 14.641 5.02712C14.641 8.24981 10.092 12.5134 7.99992 13.6162C5.90769 12.5136 1.35854 8.24981 1.35854 5.02712C1.35854 2.33738 3.53539 1.36131 4.99862 1.36131H4.99859Z" fill="#F9F9F9"/>
<path d="M7.91933 13.9812V13.7812L7.82701 14.1587L7.91933 13.9812ZM8.08016 13.9812L8.16768 14.1611L8.1701 14.1599L8.08016 13.9812ZM8 2.55894L7.85379 2.69541L7.99984 2.85189L8.14606 2.69557L8 2.55894ZM7.91984 13.9812V14.1812L8.00982 13.8026L7.91984 13.9812ZM7.86189 2.94483L8.01549 2.81671L8.01365 2.81457L7.86189 2.94483ZM8.13761 2.94483L7.9857 2.81471L7.98414 2.81659L8.13761 2.94483ZM7.99992 13.6162L7.90667 13.7931L7.99993 13.8423L8.09318 13.7931L7.99992 13.6162ZM7.82701 14.1587C7.88489 14.1888 7.94547 14.2 7.99974 14.2V13.8C7.99989 13.8 8.00088 13.8 8.00273 13.8004C8.00462 13.8008 8.00775 13.8018 8.01166 13.8038L7.82701 14.1587ZM7.99974 14.2C8.05811 14.2 8.11597 14.1862 8.16768 14.1611L7.99264 13.8014C7.99367 13.8009 7.99451 13.8006 7.99531 13.8004C7.9961 13.8003 7.99753 13.8 7.99974 13.8V14.2ZM8.1701 14.1599C9.389 13.5461 11.139 12.1226 12.5831 10.438C13.3067 9.59394 13.9588 8.67826 14.4309 7.75821C14.9021 6.8398 15.2 5.90529 15.2 5.02712H14.8C14.8 5.81886 14.5299 6.68899 14.075 7.57561C13.6209 8.46059 12.9887 9.35033 12.2794 10.1777C10.8578 11.8361 9.14779 13.2197 7.99021 13.8026L8.1701 14.1599ZM15.2 5.02712C15.2 3.48834 14.5741 2.42418 13.7281 1.74909C12.8892 1.07969 11.8438 0.8 11.0011 0.8V1.2C11.7658 1.2 12.7199 1.45634 13.4786 2.06175C14.2301 2.66145 14.8 3.61085 14.8 5.02712H15.2ZM11.0011 0.8C10.2416 0.8 9.55259 1.10426 9.011 1.4523C8.46808 1.8012 8.0585 2.20363 7.85394 2.42232L8.14606 2.69557C8.33791 2.49048 8.7221 2.11343 9.22725 1.78881C9.73373 1.46333 10.347 1.2 11.0011 1.2V0.8ZM8.14621 2.42248C7.94198 2.20367 7.53259 1.80121 6.98965 1.4523C6.44803 1.10424 5.75877 0.8 4.99886 0.8V1.2C5.65341 1.2 6.26695 1.46334 6.7734 1.78881C7.27853 2.11342 7.66248 2.49044 7.85379 2.69541L8.14621 2.42248ZM4.99886 0.8C4.15614 0.8 3.11075 1.07973 2.27188 1.74915C1.42586 2.42426 0.8 3.48842 0.8 5.02712H1.2C1.2 3.61093 1.76982 2.66153 2.52137 2.0618C3.28005 1.45638 4.2341 1.2 4.99886 1.2V0.8ZM0.8 5.02712C0.8 5.9053 1.09791 6.8398 1.5692 7.75821C2.04132 8.67825 2.69351 9.59392 3.41718 10.438C4.86141 12.1226 6.61136 13.5461 7.82987 14.1599L8.00982 13.8026C6.85258 13.2197 5.14261 11.836 3.72086 10.1777C3.01153 9.3503 2.37921 8.46056 1.92508 7.57559C1.4701 6.68898 1.2 5.81886 1.2 5.02712H0.8ZM7.91984 13.7812H7.91933V14.1812H7.91984V13.7812ZM4.99859 1.56131C5.6997 1.56131 6.36907 1.92252 6.87901 2.3068C7.38451 2.68773 7.70645 3.07081 7.71012 3.07509L8.01365 2.81457C8.01379 2.81473 8.00648 2.80609 7.995 2.79293C7.98339 2.77962 7.96687 2.76094 7.94573 2.73768C7.90346 2.69117 7.84263 2.62626 7.76537 2.54913C7.61109 2.39509 7.39018 2.19115 7.11974 1.98735C6.58432 1.58387 5.82891 1.16131 4.99859 1.16131V1.56131ZM7.7083 3.07294C7.85647 3.25058 8.14294 3.25037 8.29109 3.07307L7.98414 2.81659C7.98877 2.81104 7.99353 2.80825 7.99623 2.80709C7.99754 2.80652 7.99845 2.8063 7.9989 2.80621C7.99935 2.80612 7.9996 2.80611 7.9997 2.80611C7.99981 2.80611 8.00006 2.80612 8.00052 2.80621C8.00099 2.8063 8.00191 2.80653 8.00324 2.80711C8.00598 2.80829 8.01079 2.81111 8.01547 2.81672L7.7083 3.07294ZM8.28951 3.07494C8.29299 3.07087 8.61475 2.68779 9.12018 2.30684C9.63003 1.92256 10.2994 1.56131 11.0009 1.56131V1.16131C10.1702 1.16131 9.4148 1.58389 8.87943 1.98741C8.60902 2.19122 8.38816 2.39517 8.23394 2.54921C8.15672 2.62634 8.09591 2.69125 8.05367 2.73775C8.03254 2.76101 8.01603 2.77969 8.00443 2.793C7.99862 2.79966 7.99405 2.80496 7.99076 2.80881C7.98911 2.81074 7.98779 2.81228 7.98683 2.81341C7.98542 2.81507 7.98563 2.81482 7.98572 2.81472L8.28951 3.07494ZM11.0009 1.56131C11.6936 1.56131 12.5579 1.79366 13.2449 2.3419C13.9248 2.88445 14.441 3.74353 14.441 5.02712H14.841C14.841 3.62101 14.2688 2.64718 13.4944 2.02925C12.7272 1.41702 11.7715 1.16131 11.0009 1.16131V1.56131ZM14.441 5.02712C14.441 5.78805 14.1716 6.62576 13.7206 7.48031C13.2707 8.33304 12.6466 9.18987 11.9541 9.98528C10.5661 11.5796 8.92448 12.9027 7.90665 13.4393L8.09318 13.7931C9.16741 13.2268 10.8463 11.8668 12.2558 10.2479C12.9621 9.43676 13.6061 8.55452 14.0744 7.66699C14.5418 6.78128 14.841 5.87753 14.841 5.02712H14.441ZM8.09316 13.4393C7.07526 12.9028 5.43359 11.5797 4.04548 9.98537C3.35294 9.18995 2.72891 8.3331 2.27892 7.48035C1.82797 6.62578 1.55854 5.78805 1.55854 5.02712H1.15854C1.15854 5.87753 1.45776 6.78129 1.92515 7.66703C2.39351 8.55457 3.03753 9.43684 3.7438 10.248C5.15332 11.8669 6.83234 13.227 7.90667 13.7931L8.09316 13.4393ZM1.55854 5.02712C1.55854 3.74351 2.07473 2.88444 2.75462 2.34189C3.44164 1.79365 4.30599 1.56131 4.99862 1.56131V1.16131C4.22802 1.16131 3.27233 1.41701 2.50512 2.02924C1.73077 2.64716 1.15854 3.62099 1.15854 5.02712H1.55854ZM4.99862 1.16131H4.99859V1.56131H4.99862V1.16131Z" fill="#F9F9F9" mask="url(#path-1-outside-1_5_153)"/>
</svg>
