<svg width="12" height="12" viewBox="0 0 12 12" fill="none" xmlns="http://www.w3.org/2000/svg">
<path d="M8.76857 6.45958H5.99896C5.74415 6.45958 5.53735 6.25267 5.53735 5.99771C5.53735 5.74274 5.74415 5.53583 5.99896 5.53583H8.76857C9.02337 5.53583 9.23017 5.74274 9.23017 5.99771C9.23017 6.25267 9.02337 6.45958 8.76857 6.45958Z" fill="#D1D1D1"/>
<path d="M5.99923 6.4596C5.74427 6.4596 5.53735 6.25268 5.53735 5.99772V3.22645C5.53735 2.97149 5.74427 2.76457 5.99923 2.76457C6.25419 2.76457 6.46111 2.97149 6.46111 3.22645V5.99772C6.46111 6.25268 6.25419 6.4596 5.99923 6.4596Z" fill="#D1D1D1"/>
<path d="M5.98337 11.9998H5.98296C5.45829 11.9998 4.93786 11.9314 4.43638 11.7964C2.27529 11.2146 0.582928 9.42314 0.125019 7.2322C-0.341225 5.00014 0.519966 2.6538 2.31876 1.2547C3.35903 0.445699 4.67066 0 6.01263 0C6.94161 0 7.86408 0.216196 8.68069 0.624671C10.6968 1.6341 12 3.74301 12 5.99777C12 7.83745 11.1324 9.61072 9.67933 10.7409C8.63569 11.5529 7.32289 12 5.98361 12L5.98337 11.9998ZM6.01222 0.923651C4.8746 0.923651 3.76398 1.30007 2.8852 1.98391C1.36262 3.16788 0.633953 5.15398 1.02858 7.0432C1.41591 8.89649 2.8478 10.412 4.67629 10.9042C5.09957 11.0181 5.53922 11.0761 5.98331 11.0761H5.98352C7.11856 11.0761 8.2297 10.698 9.11238 10.0115C10.3421 9.05498 11.0765 7.55427 11.0765 5.99792C11.0765 4.0901 9.97397 2.30553 8.26728 1.45119C7.57871 1.10623 6.79881 0.923749 6.01224 0.923749L6.01222 0.923651Z" fill="#D1D1D1"/>
</svg>
