<svg width="284" height="68" viewBox="0 0 284 68" fill="none" xmlns="http://www.w3.org/2000/svg">
<path d="M71.9204 10.4844V37.9649H68.229V18.0723L59.7388 27.1367H58.7544L50.0591 18.0723V37.9649H46.3677V10.4844H47.5161L59.2466 23.0762L70.772 10.4844H71.9204ZM89.188 17.0469C91.2661 17.0469 93.1118 17.5391 94.7251 18.5235C96.3384 19.5078 97.5962 20.8203 98.4985 22.461C99.4282 24.1016 99.8931 25.8926 99.8931 27.834C99.8931 29.7754 99.4282 31.5664 98.4985 33.2071C97.5962 34.8203 96.3384 36.1192 94.7251 37.1035C93.1118 38.0879 91.2661 38.5801 89.188 38.5801C87.1099 38.5801 85.2642 38.0879 83.6509 37.1035C82.0376 36.1192 80.7661 34.8203 79.8364 33.2071C78.9341 31.5664 78.4829 29.7754 78.4829 27.834C78.4829 25.8926 78.9341 24.1016 79.8364 22.461C80.7661 20.8203 82.0376 19.5078 83.6509 18.5235C85.2642 17.5391 87.1099 17.0469 89.188 17.0469ZM89.188 20.3282C87.7388 20.3282 86.4673 20.6836 85.3735 21.3946C84.2798 22.0782 83.4321 22.9942 82.8306 24.1426C82.2563 25.2637 81.9692 26.4942 81.9692 27.834C81.9692 29.1465 82.2563 30.377 82.8306 31.5254C83.4321 32.6465 84.2798 33.5625 85.3735 34.2735C86.4673 34.9571 87.7388 35.2989 89.188 35.2989C90.6646 35.2989 91.936 34.9571 93.0024 34.2735C94.0962 33.5625 94.9302 32.6465 95.5044 31.5254C96.106 30.377 96.4067 29.1465 96.4067 27.834C96.4067 26.4942 96.106 25.2637 95.5044 24.1426C94.9302 22.9942 94.0962 22.0782 93.0024 21.3946C91.936 20.6836 90.6646 20.3282 89.188 20.3282ZM114.7 17.0469C116.778 17.0469 118.624 17.5391 120.237 18.5235C121.85 19.5078 123.108 20.8203 124.01 22.461C124.94 24.1016 125.405 25.8926 125.405 27.834C125.405 29.7754 124.94 31.5664 124.01 33.2071C123.108 34.8203 121.85 36.1192 120.237 37.1035C118.624 38.0879 116.778 38.5801 114.7 38.5801C112.622 38.5801 110.776 38.0879 109.163 37.1035C107.549 36.1192 106.278 34.8203 105.348 33.2071C104.446 31.5664 103.995 29.7754 103.995 27.834C103.995 25.8926 104.446 24.1016 105.348 22.461C106.278 20.8203 107.549 19.5078 109.163 18.5235C110.776 17.5391 112.622 17.0469 114.7 17.0469ZM114.7 20.3282C113.25 20.3282 111.979 20.6836 110.885 21.3946C109.792 22.0782 108.944 22.9942 108.342 24.1426C107.768 25.2637 107.481 26.4942 107.481 27.834C107.481 29.1465 107.768 30.377 108.342 31.5254C108.944 32.6465 109.792 33.5625 110.885 34.2735C111.979 34.9571 113.25 35.2989 114.7 35.2989C116.176 35.2989 117.448 34.9571 118.514 34.2735C119.608 33.5625 120.442 32.6465 121.016 31.5254C121.618 30.377 121.918 29.1465 121.918 27.834C121.918 26.4942 121.618 25.2637 121.016 24.1426C120.442 22.9942 119.608 22.0782 118.514 21.3946C117.448 20.6836 116.176 20.3282 114.7 20.3282ZM148.209 17.4571L138.571 37.9649H136.479L127.25 17.4571H131.27L137.463 32.5508L144.19 17.4571H148.209ZM174.295 10.4844L163.754 26.6856V37.9649H159.776V27.2188L149.235 10.4844H153.665L161.704 23.4453L169.866 10.4844H174.295ZM187.461 17.0469C189.54 17.0469 191.385 17.5391 192.999 18.5235C194.612 19.5078 195.87 20.8203 196.772 22.461C197.702 24.1016 198.167 25.8926 198.167 27.834C198.167 29.7754 197.702 31.5664 196.772 33.2071C195.87 34.8203 194.612 36.1192 192.999 37.1035C191.385 38.0879 189.54 38.5801 187.461 38.5801C185.383 38.5801 183.538 38.0879 181.924 37.1035C180.311 36.1192 179.04 34.8203 178.11 33.2071C177.208 31.5664 176.756 29.7754 176.756 27.834C176.756 25.8926 177.208 24.1016 178.11 22.461C179.04 20.8203 180.311 19.5078 181.924 18.5235C183.538 17.5391 185.383 17.0469 187.461 17.0469ZM187.461 20.3282C186.012 20.3282 184.741 20.6836 183.647 21.3946C182.553 22.0782 181.706 22.9942 181.104 24.1426C180.53 25.2637 180.243 26.4942 180.243 27.834C180.243 29.1465 180.53 30.377 181.104 31.5254C181.706 32.6465 182.553 33.5625 183.647 34.2735C184.741 34.9571 186.012 35.2989 187.461 35.2989C188.938 35.2989 190.209 34.9571 191.276 34.2735C192.37 33.5625 193.204 32.6465 193.778 31.5254C194.379 30.377 194.68 29.1465 194.68 27.834C194.68 26.4942 194.379 25.2637 193.778 24.1426C193.204 22.9942 192.37 22.0782 191.276 21.3946C190.209 20.6836 188.938 20.3282 187.461 20.3282ZM220.479 17.4571V29.5977C220.479 31.4024 220.096 32.961 219.331 34.2735C218.565 35.586 217.526 36.5977 216.213 37.3086C214.901 38.0196 213.424 38.375 211.784 38.375C210.143 38.375 208.667 38.0196 207.354 37.3086C206.042 36.5977 205.002 35.586 204.237 34.2735C203.471 32.961 203.088 31.4024 203.088 29.5977V17.4571H206.575V29.5977C206.575 31.375 207.094 32.7422 208.133 33.6992C209.2 34.6289 210.417 35.0938 211.784 35.0938C213.151 35.0938 214.354 34.6289 215.393 33.6992C216.459 32.7422 216.993 31.375 216.993 29.5977V17.4571H220.479Z" fill="#F2F2F2"/>
<path d="M82.7991 45.1016V58.8419H80.9534V48.8956L76.7083 53.4278H76.2161L71.8684 48.8956V58.8419H70.0227V45.1016H70.5969L76.4622 51.3975L82.2249 45.1016H82.7991ZM91.4329 48.3829C92.4719 48.3829 93.3948 48.629 94.2014 49.1212C95.0081 49.6133 95.637 50.2696 96.0881 51.0899C96.553 51.9102 96.7854 52.8057 96.7854 53.7764C96.7854 54.7471 96.553 55.6426 96.0881 56.463C95.637 57.2696 95.0081 57.919 94.2014 58.4112C93.3948 58.9034 92.4719 59.1495 91.4329 59.1495C90.3938 59.1495 89.4709 58.9034 88.6643 58.4112C87.8577 57.919 87.2219 57.2696 86.7571 56.463C86.3059 55.6426 86.0803 54.7471 86.0803 53.7764C86.0803 52.8057 86.3059 51.9102 86.7571 51.0899C87.2219 50.2696 87.8577 49.6133 88.6643 49.1212C89.4709 48.629 90.3938 48.3829 91.4329 48.3829ZM91.4329 50.0235C90.7083 50.0235 90.0725 50.2012 89.5256 50.5567C88.9788 50.8985 88.5549 51.3565 88.2542 51.9307C87.967 52.4913 87.8235 53.1065 87.8235 53.7764C87.8235 54.4327 87.967 55.0479 88.2542 55.6221C88.5549 56.1827 88.9788 56.6407 89.5256 56.9962C90.0725 57.338 90.7083 57.5089 91.4329 57.5089C92.1711 57.5089 92.8069 57.338 93.3401 56.9962C93.887 56.6407 94.304 56.1827 94.5911 55.6221C94.8918 55.0479 95.0422 54.4327 95.0422 53.7764C95.0422 53.1065 94.8918 52.4913 94.5911 51.9307C94.304 51.3565 93.887 50.8985 93.3401 50.5567C92.8069 50.2012 92.1711 50.0235 91.4329 50.0235ZM108.188 48.588L103.368 58.8419H102.323L97.7083 48.588H99.718L102.815 56.1348L106.178 48.588H108.188ZM111.879 43.6661C112.276 43.6661 112.604 43.8096 112.864 44.0967C113.137 44.3702 113.274 44.6915 113.274 45.0606C113.274 45.4161 113.137 45.7374 112.864 46.0245C112.604 46.3116 112.276 46.4551 111.879 46.4551C111.483 46.4551 111.148 46.3116 110.874 46.0245C110.615 45.7374 110.485 45.4161 110.485 45.0606C110.485 44.6915 110.615 44.3702 110.874 44.0967C111.148 43.8096 111.483 43.6661 111.879 43.6661ZM112.925 48.588V58.8419H111.243V50.1671H109.623V48.588H112.925ZM120.78 48.3829C121.832 48.3829 122.707 48.6016 123.405 49.0391C124.102 49.4766 124.621 50.0714 124.963 50.8233C125.319 51.5753 125.496 52.4229 125.496 53.3663V54.3712H117.621C117.703 54.9454 117.902 55.4717 118.216 55.9503C118.531 56.4288 118.941 56.8116 119.447 57.0987C119.952 57.3721 120.533 57.5089 121.19 57.5089C121.928 57.5089 122.618 57.3243 123.261 56.9551C123.904 56.5723 124.444 56.1553 124.881 55.7042L124.861 57.5294C124.669 57.7618 124.382 58.0079 123.999 58.2676C123.63 58.5137 123.199 58.7188 122.707 58.8829C122.229 59.0606 121.723 59.1495 121.19 59.1495C120.151 59.1495 119.228 58.9034 118.421 58.4112C117.615 57.919 116.979 57.2696 116.514 56.463C116.063 55.6426 115.837 54.7471 115.837 53.7764C115.837 52.8057 116.049 51.9102 116.473 51.0899C116.897 50.2696 117.478 49.6133 118.216 49.1212C118.968 48.629 119.823 48.3829 120.78 48.3829ZM120.78 50.0235C119.932 50.0235 119.235 50.3106 118.688 50.8848C118.141 51.4454 117.799 52.129 117.662 52.9356H123.835C123.767 52.2657 123.575 51.7188 123.261 51.295C122.96 50.8712 122.591 50.5567 122.154 50.3516C121.716 50.1329 121.258 50.0235 120.78 50.0235ZM131.321 48.3829C131.922 48.3829 132.483 48.4717 133.002 48.6495C133.522 48.8135 133.898 48.9844 134.13 49.1622V50.9669C133.843 50.7481 133.453 50.5362 132.961 50.3311C132.469 50.126 131.963 50.0235 131.444 50.0235C130.801 50.0235 130.316 50.1739 129.988 50.4747C129.673 50.7755 129.516 51.0899 129.516 51.418C129.516 51.6778 129.605 51.9444 129.782 52.2178C129.974 52.4776 130.302 52.6895 130.767 52.8536L132.49 53.4688C133.159 53.7012 133.658 54.0362 133.987 54.4737C134.315 54.9112 134.479 55.4239 134.479 56.0118C134.479 56.586 134.315 57.1124 133.987 57.5909C133.672 58.0694 133.228 58.4522 132.654 58.7393C132.093 59.0128 131.444 59.1495 130.705 59.1495C130.309 59.1495 129.892 59.0948 129.454 58.9854C129.031 58.8897 128.648 58.7735 128.306 58.6368C127.964 58.4864 127.711 58.3565 127.547 58.2471V56.4424C127.739 56.5792 128.005 56.7364 128.347 56.9141C128.702 57.0782 129.078 57.2217 129.475 57.3448C129.871 57.4542 130.24 57.5089 130.582 57.5089C131.225 57.5089 131.731 57.3653 132.1 57.0782C132.483 56.7911 132.674 56.4356 132.674 56.0118C132.674 55.6837 132.544 55.4239 132.284 55.2325C132.038 55.0411 131.676 54.8565 131.198 54.6788L129.68 54.1251C128.887 53.8243 128.361 53.4483 128.101 52.9971C127.841 52.5323 127.711 52.0059 127.711 51.418C127.711 50.543 128.039 49.8184 128.696 49.2442C129.352 48.67 130.227 48.3829 131.321 48.3829ZM148.506 48.588V50.1671H145.512V58.8419H143.83V50.1671H142.21V48.588H143.83V47.2755C143.83 46.4688 143.988 45.8126 144.302 45.3067C144.616 44.7872 145.02 44.4044 145.512 44.1583C146.004 43.8985 146.503 43.7686 147.009 43.7686C147.706 43.7686 148.274 43.9532 148.711 44.3223V45.7989C148.506 45.6622 148.26 45.5528 147.973 45.4708C147.686 45.3887 147.399 45.3546 147.112 45.3682C146.606 45.3819 146.209 45.546 145.922 45.8604C145.649 46.1612 145.512 46.6944 145.512 47.46V48.588H148.506ZM155.376 48.3829C156.415 48.3829 157.338 48.629 158.145 49.1212C158.951 49.6133 159.58 50.2696 160.031 51.0899C160.496 51.9102 160.729 52.8057 160.729 53.7764C160.729 54.7471 160.496 55.6426 160.031 56.463C159.58 57.2696 158.951 57.919 158.145 58.4112C157.338 58.9034 156.415 59.1495 155.376 59.1495C154.337 59.1495 153.414 58.9034 152.608 58.4112C151.801 57.919 151.165 57.2696 150.7 56.463C150.249 55.6426 150.024 54.7471 150.024 53.7764C150.024 52.8057 150.249 51.9102 150.7 51.0899C151.165 50.2696 151.801 49.6133 152.608 49.1212C153.414 48.629 154.337 48.3829 155.376 48.3829ZM155.376 50.0235C154.652 50.0235 154.016 50.2012 153.469 50.5567C152.922 50.8985 152.498 51.3565 152.198 51.9307C151.91 52.4913 151.767 53.1065 151.767 53.7764C151.767 54.4327 151.91 55.0479 152.198 55.6221C152.498 56.1827 152.922 56.6407 153.469 56.9962C154.016 57.338 154.652 57.5089 155.376 57.5089C156.115 57.5089 156.75 57.338 157.283 56.9962C157.83 56.6407 158.247 56.1827 158.534 55.6221C158.835 55.0479 158.986 54.4327 158.986 53.7764C158.986 53.1065 158.835 52.4913 158.534 51.9307C158.247 51.3565 157.83 50.8985 157.283 50.5567C156.75 50.2012 156.115 50.0235 155.376 50.0235ZM165.179 48.588V50.6387C165.575 49.9551 166.054 49.4083 166.615 48.9981C167.175 48.588 167.749 48.3829 168.337 48.3829C168.734 48.3829 169.089 48.4512 169.404 48.588V50.5362C168.966 50.2764 168.529 50.1465 168.091 50.1465C167.394 50.1465 166.826 50.3926 166.389 50.8848C165.965 51.377 165.562 51.9649 165.179 52.6485V58.8419H163.497V48.588H165.179ZM178.283 48.588L181.872 56.1348L185.359 48.588H187.368L179.822 63.7637H177.873L180.806 58.2266L176.274 48.588H178.283ZM194.054 48.3829C195.093 48.3829 196.016 48.629 196.823 49.1212C197.629 49.6133 198.258 50.2696 198.709 51.0899C199.174 51.9102 199.406 52.8057 199.406 53.7764C199.406 54.7471 199.174 55.6426 198.709 56.463C198.258 57.2696 197.629 57.919 196.823 58.4112C196.016 58.9034 195.093 59.1495 194.054 59.1495C193.015 59.1495 192.092 58.9034 191.285 58.4112C190.479 57.919 189.843 57.2696 189.378 56.463C188.927 55.6426 188.701 54.7471 188.701 53.7764C188.701 52.8057 188.927 51.9102 189.378 51.0899C189.843 50.2696 190.479 49.6133 191.285 49.1212C192.092 48.629 193.015 48.3829 194.054 48.3829ZM194.054 50.0235C193.329 50.0235 192.694 50.2012 192.147 50.5567C191.6 50.8985 191.176 51.3565 190.875 51.9307C190.588 52.4913 190.445 53.1065 190.445 53.7764C190.445 54.4327 190.588 55.0479 190.875 55.6221C191.176 56.1827 191.6 56.6407 192.147 56.9962C192.694 57.338 193.329 57.5089 194.054 57.5089C194.792 57.5089 195.428 57.338 195.961 56.9962C196.508 56.6407 196.925 56.1827 197.212 55.6221C197.513 55.0479 197.663 54.4327 197.663 53.7764C197.663 53.1065 197.513 52.4913 197.212 51.9307C196.925 51.3565 196.508 50.8985 195.961 50.5567C195.428 50.2012 194.792 50.0235 194.054 50.0235ZM210.563 48.588V54.6583C210.563 55.5606 210.371 56.3399 209.989 56.9962C209.606 57.6524 209.086 58.1583 208.43 58.5137C207.774 58.8692 207.035 59.0469 206.215 59.0469C205.395 59.0469 204.656 58.8692 204 58.5137C203.344 58.1583 202.824 57.6524 202.442 56.9962C202.059 56.3399 201.867 55.5606 201.867 54.6583V48.588H203.611V54.6583C203.611 55.5469 203.87 56.2305 204.39 56.709C204.923 57.1739 205.531 57.4063 206.215 57.4063C206.899 57.4063 207.5 57.1739 208.02 56.709C208.553 56.2305 208.82 55.5469 208.82 54.6583V48.588H210.563Z" fill="#F2F2F2"/>
<path d="M3.07082 18.0991C3.07082 17.642 2.91648 17.2039 2.6417 16.8808C2.36691 16.5576 1.99437 16.3761 1.60569 16.3761C1.21721 16.3761 0.844675 16.5576 0.569875 16.8808C0.295094 17.2039 0.140747 17.6423 0.140747 18.0991C0.140747 18.5559 0.295094 18.994 0.569875 19.3172C0.844656 19.6403 1.2172 19.8218 1.60588 19.8218C1.99436 19.8218 2.3669 19.6403 2.6417 19.3172C2.91648 18.994 3.07082 18.5559 3.07082 18.0991Z" fill="#F2F2F2"/>
<path d="M27.5169 0.273859C27.4376 0.0480765 27.2179 -0.0595377 27.0259 0.0334162L0.232771 13.0228C0.0407745 13.1157 -0.0507358 13.3744 0.0285572 13.6001L0.528246 15.0258C1.22141 14.6889 2.00017 14.6897 2.69256 15.0287C3.38502 15.3677 3.93455 16.0166 4.21957 16.8323L28.746 4.94267C28.938 4.84942 29.0295 4.5908 28.9505 4.36502L27.5169 0.273859ZM5.2782 15.0243L2.69648 13.1221L4.75637 12.1237L7.33783 14.0258L5.2782 15.0243ZM10.1644 12.6556L7.58269 10.7534L9.64257 9.75495L12.224 11.6571L10.1644 12.6556ZM15.0506 10.2869L12.4691 8.3847L14.529 7.38626L17.1103 9.28842L15.0506 10.2869ZM19.9366 7.91817L17.3548 6.01601L19.4147 5.01756L21.9962 6.91972L19.9366 7.91817ZM24.8228 5.54947L22.2411 3.64731L24.3009 2.64856L26.8824 4.55073L24.8228 5.54947Z" fill="#F2F2F2"/>
<path d="M31.338 35.2314V18.5413C31.338 18.297 31.1695 18.0991 30.962 18.0991H4.43376C4.43276 18.9808 4.13454 19.8262 3.60444 20.4496C3.07433 21.073 2.35549 21.4239 1.60571 21.4248V35.2317C1.60571 35.9216 1.8386 36.5835 2.25349 37.0711C2.6684 37.559 3.2309 37.8331 3.81765 37.8331H29.1261C29.7128 37.8331 30.2753 37.559 30.6902 37.0711C31.1051 36.5834 31.3382 35.9217 31.3382 35.2317L31.338 35.2314ZM16.5671 19.2957H18.795L17.0247 22.2113H14.7968L16.5671 19.2957ZM6.45474 22.2113H4.22685L5.99719 19.2957H8.22508L6.45474 22.2113ZM11.2821 19.2957H13.51L11.7396 22.2113H9.51176L11.2821 19.2957ZM16.472 36.5338C15.0036 36.5338 13.5951 35.8477 12.5568 34.6267C11.5182 33.4054 10.9348 31.7493 10.9348 30.0222C10.9348 28.2953 11.518 26.6389 12.5565 25.4179C13.5948 24.1966 15.0034 23.5105 16.4718 23.5105C17.9404 23.5105 19.3487 24.1966 20.3873 25.4176C21.4258 26.6389 22.009 28.295 22.009 30.0222C22.0072 31.7484 21.4235 33.4033 20.3855 34.6244C19.3474 35.8451 17.9401 36.5315 16.472 36.5339L16.472 36.5338ZM22.31 22.2113H20.0821L21.8524 19.2957H24.0803L22.31 22.2113ZM25.367 22.2113L27.1373 19.2957H29.3652L27.5949 22.2113H25.367Z" fill="#F2F2F2"/>
<ellipse cx="17.3398" cy="30.3546" rx="6.72359" ry="7.42004" fill="#F2F2F2"/>
</svg>
