<svg width="180" height="47" viewBox="0 0 186 50" fill="none" xmlns="http://www.w3.org/2000/svg">
<path d="M54.0537 5.09961V28H50.9775V11.4229L43.9023 18.9766H43.082L35.8359 11.4229V28H32.7598V5.09961H33.7168L43.4922 15.5928L53.0967 5.09961H54.0537ZM68.4434 10.5684C70.1751 10.5684 71.7132 10.9785 73.0576 11.7988C74.402 12.6191 75.4502 13.7129 76.2021 15.0801C76.9769 16.4473 77.3643 17.9398 77.3643 19.5576C77.3643 21.1755 76.9769 22.668 76.2021 24.0352C75.4502 25.3796 74.402 26.4619 73.0576 27.2822C71.7132 28.1025 70.1751 28.5127 68.4434 28.5127C66.7116 28.5127 65.1735 28.1025 63.8291 27.2822C62.4847 26.4619 61.4251 25.3796 60.6504 24.0352C59.8984 22.668 59.5225 21.1755 59.5225 19.5576C59.5225 17.9398 59.8984 16.4473 60.6504 15.0801C61.4251 13.7129 62.4847 12.6191 63.8291 11.7988C65.1735 10.9785 66.7116 10.5684 68.4434 10.5684ZM68.4434 13.3027C67.2357 13.3027 66.1761 13.599 65.2646 14.1914C64.3532 14.7611 63.6468 15.5244 63.1455 16.4814C62.667 17.4157 62.4277 18.4411 62.4277 19.5576C62.4277 20.6514 62.667 21.6768 63.1455 22.6338C63.6468 23.568 64.3532 24.3314 65.2646 24.9238C66.1761 25.4935 67.2357 25.7783 68.4434 25.7783C69.6738 25.7783 70.7334 25.4935 71.6221 24.9238C72.5335 24.3314 73.2285 23.568 73.707 22.6338C74.2083 21.6768 74.459 20.6514 74.459 19.5576C74.459 18.4411 74.2083 17.4157 73.707 16.4814C73.2285 15.5244 72.5335 14.7611 71.6221 14.1914C70.7334 13.599 69.6738 13.3027 68.4434 13.3027ZM89.7031 10.5684C91.4349 10.5684 92.973 10.9785 94.3174 11.7988C95.6618 12.6191 96.71 13.7129 97.4619 15.0801C98.2367 16.4473 98.624 17.9398 98.624 19.5576C98.624 21.1755 98.2367 22.668 97.4619 24.0352C96.71 25.3796 95.6618 26.4619 94.3174 27.2822C92.973 28.1025 91.4349 28.5127 89.7031 28.5127C87.9714 28.5127 86.4333 28.1025 85.0889 27.2822C83.7445 26.4619 82.6849 25.3796 81.9102 24.0352C81.1582 22.668 80.7822 21.1755 80.7822 19.5576C80.7822 17.9398 81.1582 16.4473 81.9102 15.0801C82.6849 13.7129 83.7445 12.6191 85.0889 11.7988C86.4333 10.9785 87.9714 10.5684 89.7031 10.5684ZM89.7031 13.3027C88.4954 13.3027 87.4359 13.599 86.5244 14.1914C85.613 14.7611 84.9066 15.5244 84.4053 16.4814C83.9268 17.4157 83.6875 18.4411 83.6875 19.5576C83.6875 20.6514 83.9268 21.6768 84.4053 22.6338C84.9066 23.568 85.613 24.3314 86.5244 24.9238C87.4359 25.4935 88.4954 25.7783 89.7031 25.7783C90.9336 25.7783 91.9932 25.4935 92.8818 24.9238C93.7933 24.3314 94.4883 23.568 94.9668 22.6338C95.4681 21.6768 95.7188 20.6514 95.7188 19.5576C95.7188 18.4411 95.4681 17.4157 94.9668 16.4814C94.4883 15.5244 93.7933 14.7611 92.8818 14.1914C91.9932 13.599 90.9336 13.3027 89.7031 13.3027ZM117.628 10.9102L109.596 28H107.853L100.162 10.9102H103.512L108.673 23.4883L114.278 10.9102H117.628ZM139.366 5.09961L130.582 18.6006V28H127.267V19.0449L118.482 5.09961H122.174L128.873 15.9004L135.675 5.09961H139.366ZM150.338 10.5684C152.07 10.5684 153.608 10.9785 154.952 11.7988C156.297 12.6191 157.345 13.7129 158.097 15.0801C158.871 16.4473 159.259 17.9398 159.259 19.5576C159.259 21.1755 158.871 22.668 158.097 24.0352C157.345 25.3796 156.297 26.4619 154.952 27.2822C153.608 28.1025 152.07 28.5127 150.338 28.5127C148.606 28.5127 147.068 28.1025 145.724 27.2822C144.379 26.4619 143.32 25.3796 142.545 24.0352C141.793 22.668 141.417 21.1755 141.417 19.5576C141.417 17.9398 141.793 16.4473 142.545 15.0801C143.32 13.7129 144.379 12.6191 145.724 11.7988C147.068 10.9785 148.606 10.5684 150.338 10.5684ZM150.338 13.3027C149.13 13.3027 148.071 13.599 147.159 14.1914C146.248 14.7611 145.541 15.5244 145.04 16.4814C144.562 17.4157 144.322 18.4411 144.322 19.5576C144.322 20.6514 144.562 21.6768 145.04 22.6338C145.541 23.568 146.248 24.3314 147.159 24.9238C148.071 25.4935 149.13 25.7783 150.338 25.7783C151.568 25.7783 152.628 25.4935 153.517 24.9238C154.428 24.3314 155.123 23.568 155.602 22.6338C156.103 21.6768 156.354 20.6514 156.354 19.5576C156.354 18.4411 156.103 17.4157 155.602 16.4814C155.123 15.5244 154.428 14.7611 153.517 14.1914C152.628 13.599 151.568 13.3027 150.338 13.3027ZM177.853 10.9102V21.0273C177.853 22.5312 177.534 23.8301 176.896 24.9238C176.257 26.0176 175.392 26.8607 174.298 27.4531C173.204 28.0456 171.974 28.3418 170.606 28.3418C169.239 28.3418 168.009 28.0456 166.915 27.4531C165.821 26.8607 164.955 26.0176 164.317 24.9238C163.679 23.8301 163.36 22.5312 163.36 21.0273V10.9102H166.266V21.0273C166.266 22.5085 166.699 23.6478 167.564 24.4453C168.453 25.2201 169.467 25.6074 170.606 25.6074C171.746 25.6074 172.748 25.2201 173.614 24.4453C174.503 23.6478 174.947 22.5085 174.947 21.0273V10.9102H177.853Z" fill="#F2F2F2"/>
<path d="M66.4531 35.5312V46H65.0469V38.4219L61.8125 41.875H61.4375L58.125 38.4219V46H56.7188V35.5312H57.1562L61.625 40.3281L66.0156 35.5312H66.4531ZM73.0312 38.0312C73.8229 38.0312 74.526 38.2188 75.1406 38.5938C75.7552 38.9688 76.2344 39.4688 76.5781 40.0938C76.9323 40.7188 77.1094 41.401 77.1094 42.1406C77.1094 42.8802 76.9323 43.5625 76.5781 44.1875C76.2344 44.8021 75.7552 45.2969 75.1406 45.6719C74.526 46.0469 73.8229 46.2344 73.0312 46.2344C72.2396 46.2344 71.5365 46.0469 70.9219 45.6719C70.3073 45.2969 69.8229 44.8021 69.4688 44.1875C69.125 43.5625 68.9531 42.8802 68.9531 42.1406C68.9531 41.401 69.125 40.7188 69.4688 40.0938C69.8229 39.4688 70.3073 38.9688 70.9219 38.5938C71.5365 38.2188 72.2396 38.0312 73.0312 38.0312ZM73.0312 39.2812C72.4792 39.2812 71.9948 39.4167 71.5781 39.6875C71.1615 39.9479 70.8385 40.2969 70.6094 40.7344C70.3906 41.1615 70.2812 41.6302 70.2812 42.1406C70.2812 42.6406 70.3906 43.1094 70.6094 43.5469C70.8385 43.974 71.1615 44.3229 71.5781 44.5938C71.9948 44.8542 72.4792 44.9844 73.0312 44.9844C73.5938 44.9844 74.0781 44.8542 74.4844 44.5938C74.901 44.3229 75.2188 43.974 75.4375 43.5469C75.6667 43.1094 75.7812 42.6406 75.7812 42.1406C75.7812 41.6302 75.6667 41.1615 75.4375 40.7344C75.2188 40.2969 74.901 39.9479 74.4844 39.6875C74.0781 39.4167 73.5938 39.2812 73.0312 39.2812ZM85.7969 38.1875L82.125 46H81.3281L77.8125 38.1875H79.3438L81.7031 43.9375L84.2656 38.1875H85.7969ZM88.6094 34.4375C88.9115 34.4375 89.1615 34.5469 89.3594 34.7656C89.5677 34.974 89.6719 35.2188 89.6719 35.5C89.6719 35.7708 89.5677 36.0156 89.3594 36.2344C89.1615 36.4531 88.9115 36.5625 88.6094 36.5625C88.3073 36.5625 88.0521 36.4531 87.8438 36.2344C87.6458 36.0156 87.5469 35.7708 87.5469 35.5C87.5469 35.2188 87.6458 34.974 87.8438 34.7656C88.0521 34.5469 88.3073 34.4375 88.6094 34.4375ZM89.4062 38.1875V46H88.125V39.3906H86.8906V38.1875H89.4062ZM95.3906 38.0312C96.1927 38.0312 96.8594 38.1979 97.3906 38.5312C97.9219 38.8646 98.3177 39.3177 98.5781 39.8906C98.849 40.4635 98.9844 41.1094 98.9844 41.8281V42.5938H92.9844C93.0469 43.0312 93.1979 43.4323 93.4375 43.7969C93.6771 44.1615 93.9896 44.4531 94.375 44.6719C94.7604 44.8802 95.2031 44.9844 95.7031 44.9844C96.2656 44.9844 96.7917 44.8438 97.2812 44.5625C97.7708 44.2708 98.1823 43.9531 98.5156 43.6094L98.5 45C98.3542 45.1771 98.1354 45.3646 97.8438 45.5625C97.5625 45.75 97.2344 45.9062 96.8594 46.0312C96.4948 46.1667 96.1094 46.2344 95.7031 46.2344C94.9115 46.2344 94.2083 46.0469 93.5938 45.6719C92.9792 45.2969 92.4948 44.8021 92.1406 44.1875C91.7969 43.5625 91.625 42.8802 91.625 42.1406C91.625 41.401 91.7865 40.7188 92.1094 40.0938C92.4323 39.4688 92.875 38.9688 93.4375 38.5938C94.0104 38.2188 94.6615 38.0312 95.3906 38.0312ZM95.3906 39.2812C94.7448 39.2812 94.2135 39.5 93.7969 39.9375C93.3802 40.3646 93.1198 40.8854 93.0156 41.5H97.7188C97.6667 40.9896 97.5208 40.5729 97.2812 40.25C97.0521 39.9271 96.7708 39.6875 96.4375 39.5312C96.1042 39.3646 95.7552 39.2812 95.3906 39.2812ZM103.422 38.0312C103.88 38.0312 104.307 38.099 104.703 38.2344C105.099 38.3594 105.385 38.4896 105.562 38.625V40C105.344 39.8333 105.047 39.6719 104.672 39.5156C104.297 39.3594 103.911 39.2812 103.516 39.2812C103.026 39.2812 102.656 39.3958 102.406 39.625C102.167 39.8542 102.047 40.0938 102.047 40.3438C102.047 40.5417 102.115 40.7448 102.25 40.9531C102.396 41.151 102.646 41.3125 103 41.4375L104.312 41.9062C104.823 42.0833 105.203 42.3385 105.453 42.6719C105.703 43.0052 105.828 43.3958 105.828 43.8438C105.828 44.2812 105.703 44.6823 105.453 45.0469C105.214 45.4115 104.875 45.7031 104.438 45.9219C104.01 46.1302 103.516 46.2344 102.953 46.2344C102.651 46.2344 102.333 46.1927 102 46.1094C101.677 46.0365 101.385 45.9479 101.125 45.8438C100.865 45.7292 100.672 45.6302 100.547 45.5469V44.1719C100.693 44.276 100.896 44.3958 101.156 44.5312C101.427 44.6562 101.714 44.7656 102.016 44.8594C102.318 44.9427 102.599 44.9844 102.859 44.9844C103.349 44.9844 103.734 44.875 104.016 44.6562C104.307 44.4375 104.453 44.1667 104.453 43.8438C104.453 43.5938 104.354 43.3958 104.156 43.25C103.969 43.1042 103.693 42.9635 103.328 42.8281L102.172 42.4062C101.568 42.1771 101.167 41.8906 100.969 41.5469C100.771 41.1927 100.672 40.7917 100.672 40.3438C100.672 39.6771 100.922 39.125 101.422 38.6875C101.922 38.25 102.589 38.0312 103.422 38.0312ZM116.516 38.1875V39.3906H114.234V46H112.953V39.3906H111.719V38.1875H112.953V37.1875C112.953 36.5729 113.073 36.0729 113.312 35.6875C113.552 35.2917 113.859 35 114.234 34.8125C114.609 34.6146 114.99 34.5156 115.375 34.5156C115.906 34.5156 116.339 34.6562 116.672 34.9375V36.0625C116.516 35.9583 116.328 35.875 116.109 35.8125C115.891 35.75 115.672 35.724 115.453 35.7344C115.068 35.7448 114.766 35.8698 114.547 36.1094C114.339 36.3385 114.234 36.7448 114.234 37.3281V38.1875H116.516ZM121.75 38.0312C122.542 38.0312 123.245 38.2188 123.859 38.5938C124.474 38.9688 124.953 39.4688 125.297 40.0938C125.651 40.7188 125.828 41.401 125.828 42.1406C125.828 42.8802 125.651 43.5625 125.297 44.1875C124.953 44.8021 124.474 45.2969 123.859 45.6719C123.245 46.0469 122.542 46.2344 121.75 46.2344C120.958 46.2344 120.255 46.0469 119.641 45.6719C119.026 45.2969 118.542 44.8021 118.188 44.1875C117.844 43.5625 117.672 42.8802 117.672 42.1406C117.672 41.401 117.844 40.7188 118.188 40.0938C118.542 39.4688 119.026 38.9688 119.641 38.5938C120.255 38.2188 120.958 38.0312 121.75 38.0312ZM121.75 39.2812C121.198 39.2812 120.714 39.4167 120.297 39.6875C119.88 39.9479 119.557 40.2969 119.328 40.7344C119.109 41.1615 119 41.6302 119 42.1406C119 42.6406 119.109 43.1094 119.328 43.5469C119.557 43.974 119.88 44.3229 120.297 44.5938C120.714 44.8542 121.198 44.9844 121.75 44.9844C122.312 44.9844 122.797 44.8542 123.203 44.5938C123.62 44.3229 123.938 43.974 124.156 43.5469C124.385 43.1094 124.5 42.6406 124.5 42.1406C124.5 41.6302 124.385 41.1615 124.156 40.7344C123.938 40.2969 123.62 39.9479 123.203 39.6875C122.797 39.4167 122.312 39.2812 121.75 39.2812ZM129.219 38.1875V39.75C129.521 39.2292 129.885 38.8125 130.312 38.5C130.74 38.1875 131.177 38.0312 131.625 38.0312C131.927 38.0312 132.198 38.0833 132.438 38.1875V39.6719C132.104 39.474 131.771 39.375 131.438 39.375C130.906 39.375 130.474 39.5625 130.141 39.9375C129.818 40.3125 129.51 40.7604 129.219 41.2812V46H127.938V38.1875H129.219ZM139.203 38.1875L141.938 43.9375L144.594 38.1875H146.125L140.375 49.75H138.891L141.125 45.5312L137.672 38.1875H139.203ZM151.219 38.0312C152.01 38.0312 152.714 38.2188 153.328 38.5938C153.943 38.9688 154.422 39.4688 154.766 40.0938C155.12 40.7188 155.297 41.401 155.297 42.1406C155.297 42.8802 155.12 43.5625 154.766 44.1875C154.422 44.8021 153.943 45.2969 153.328 45.6719C152.714 46.0469 152.01 46.2344 151.219 46.2344C150.427 46.2344 149.724 46.0469 149.109 45.6719C148.495 45.2969 148.01 44.8021 147.656 44.1875C147.312 43.5625 147.141 42.8802 147.141 42.1406C147.141 41.401 147.312 40.7188 147.656 40.0938C148.01 39.4688 148.495 38.9688 149.109 38.5938C149.724 38.2188 150.427 38.0312 151.219 38.0312ZM151.219 39.2812C150.667 39.2812 150.182 39.4167 149.766 39.6875C149.349 39.9479 149.026 40.2969 148.797 40.7344C148.578 41.1615 148.469 41.6302 148.469 42.1406C148.469 42.6406 148.578 43.1094 148.797 43.5469C149.026 43.974 149.349 44.3229 149.766 44.5938C150.182 44.8542 150.667 44.9844 151.219 44.9844C151.781 44.9844 152.266 44.8542 152.672 44.5938C153.089 44.3229 153.406 43.974 153.625 43.5469C153.854 43.1094 153.969 42.6406 153.969 42.1406C153.969 41.6302 153.854 41.1615 153.625 40.7344C153.406 40.2969 153.089 39.9479 152.672 39.6875C152.266 39.4167 151.781 39.2812 151.219 39.2812ZM163.797 38.1875V42.8125C163.797 43.5 163.651 44.0938 163.359 44.5938C163.068 45.0938 162.672 45.4792 162.172 45.75C161.672 46.0208 161.109 46.1562 160.484 46.1562C159.859 46.1562 159.297 46.0208 158.797 45.75C158.297 45.4792 157.901 45.0938 157.609 44.5938C157.318 44.0938 157.172 43.5 157.172 42.8125V38.1875H158.5V42.8125C158.5 43.4896 158.698 44.0104 159.094 44.375C159.5 44.7292 159.964 44.9062 160.484 44.9062C161.005 44.9062 161.464 44.7292 161.859 44.375C162.266 44.0104 162.469 43.4896 162.469 42.8125V38.1875H163.797Z" fill="#F2F2F2"/>
<path d="M2.15585 15.9795C2.15585 15.6585 2.04749 15.351 1.85459 15.1242C1.66169 14.8973 1.40016 14.7699 1.1273 14.7699C0.854575 14.7699 0.593049 14.8973 0.400133 15.1242C0.207232 15.351 0.098877 15.6588 0.098877 15.9795C0.098877 16.3002 0.207232 16.6077 0.400133 16.8346C0.593035 17.0614 0.854571 17.1888 1.12743 17.1888C1.40015 17.1888 1.66168 17.0614 1.85459 16.8346C2.04749 16.6077 2.15585 16.3002 2.15585 15.9795Z" fill="#F2F2F2"/>
<path d="M19.3174 3.46578C19.2617 3.30728 19.1075 3.23173 18.9727 3.29699L0.16341 12.4158C0.0286245 12.481 -0.0356176 12.6626 0.0200477 12.8211L0.37084 13.8219C0.857452 13.5854 1.40416 13.586 1.89023 13.824C2.37635 14.062 2.76213 14.5175 2.96222 15.0902L20.1803 6.74338C20.3151 6.67792 20.3793 6.49636 20.3238 6.33786L19.3174 3.46578ZM3.7054 13.8209L1.89299 12.4855L3.33906 11.7846L5.1513 13.1199L3.7054 13.8209ZM7.13562 12.158L5.3232 10.8226L6.76928 10.1217L8.58151 11.4571L7.13562 12.158ZM10.5658 10.4951L8.75359 9.15976L10.1997 8.45883L12.0118 9.79418L10.5658 10.4951ZM13.9959 8.83224L12.1834 7.49689L13.6295 6.79596L15.4418 8.13131L13.9959 8.83224ZM17.4261 7.16937L15.6137 5.83401L17.0597 5.13287L18.872 6.46823L17.4261 7.16937Z" fill="#F2F2F2"/>
<path d="M22.0001 28.0067V16.2899C22.0001 16.1184 21.8818 15.9795 21.7361 15.9795H3.11279C3.11209 16.5984 2.90273 17.1919 2.53059 17.6295C2.15844 18.0672 1.6538 18.3135 1.12744 18.3142V28.0069C1.12744 28.4912 1.29093 28.9558 1.58219 29.2982C1.87347 29.6407 2.26835 29.8331 2.68026 29.8331H20.4473C20.8591 29.8331 21.2541 29.6407 21.5453 29.2982C21.8366 28.9558 22.0003 28.4913 22.0003 28.0069L22.0001 28.0067ZM11.6307 16.8195H13.1947L11.9519 18.8663H10.3878L11.6307 16.8195ZM4.53156 18.8663H2.96753L4.21034 16.8195H5.77437L4.53156 18.8663ZM7.92045 16.8195H9.48448L8.24166 18.8663H6.67764L7.92045 16.8195ZM11.5639 28.921C10.533 28.921 9.54421 28.4393 8.8153 27.5821C8.08621 26.7248 7.67663 25.5621 7.67663 24.3497C7.67663 23.1374 8.08606 21.9746 8.81512 21.1174C9.54403 20.26 10.5328 19.7784 11.5637 19.7784C12.5947 19.7784 13.5834 20.26 14.3125 21.1172C15.0415 21.9746 15.451 23.1372 15.451 24.3497C15.4497 25.5615 15.0399 26.7233 14.3112 27.5805C13.5825 28.4375 12.5945 28.9193 11.5638 28.921L11.5639 28.921ZM15.6622 18.8663H14.0982L15.341 16.8195H16.9051L15.6622 18.8663ZM17.8083 18.8663L19.0511 16.8195H20.6152L19.3723 18.8663H17.8083Z" fill="#F2F2F2"/>
<ellipse cx="12.173" cy="24.5831" rx="4.72009" ry="5.20902" fill="#F2F2F2"/>
</svg>
