<svg width="18" height="17" viewBox="0 0 18 17" fill="none" xmlns="http://www.w3.org/2000/svg">
<path d="M12.7112 0C10.8535 0 9.68075 0.976927 9 1.86022C8.31947 0.976892 7.1469 0 5.28846 0C2.12503 0 0 3.16643 0 6.12364C0 10.4288 7.65321 16.1985 8.52589 16.8421C8.66878 16.9474 8.83439 17 9 17C9.16561 17 9.33123 16.9472 9.47411 16.8421C10.3467 16.1985 18 10.4288 18 6.12364C18 3.16643 15.8747 0 12.7112 0V0ZM8.99968 14.9837C5.9859 12.6677 1.68204 8.52246 1.68204 6.12364C1.68204 4.31822 2.93535 1.81709 5.28846 1.81709C7.42899 1.81709 8.1847 3.81449 8.21385 3.89371C8.33677 4.24456 8.64804 4.47409 8.99521 4.47722H9.00111C9.34613 4.47722 9.6574 4.24631 9.78447 3.89982C9.81548 3.81463 10.5715 1.81723 12.7112 1.81723C15.0646 1.81723 16.3183 4.31794 16.3183 6.12378C16.3181 8.51975 12.0137 12.6663 8.9997 14.9838L8.99968 14.9837Z" fill="#F9F9F9"/>
</svg>
