<svg width="164" height="23" viewBox="0 0 164 23" fill="none" xmlns="http://www.w3.org/2000/svg">
<path d="M46.043 3.97968V22.3H43.582V9.03827L37.9219 15.0812H37.2656L31.4688 9.03827V22.3H29.0078V3.97968H29.7734L37.5938 12.3742L45.2773 3.97968H46.043ZM57.5547 8.35468C58.9401 8.35468 60.1706 8.6828 61.2461 9.33905C62.3216 9.9953 63.1602 10.8703 63.7617 11.9641C64.3815 13.0578 64.6914 14.2518 64.6914 15.5461C64.6914 16.8404 64.3815 18.0344 63.7617 19.1281C63.1602 20.2036 62.3216 21.0695 61.2461 21.7258C60.1706 22.382 58.9401 22.7101 57.5547 22.7101C56.1693 22.7101 54.9388 22.382 53.8633 21.7258C52.7878 21.0695 51.9401 20.2036 51.3203 19.1281C50.7188 18.0344 50.418 16.8404 50.418 15.5461C50.418 14.2518 50.7188 13.0578 51.3203 11.9641C51.9401 10.8703 52.7878 9.9953 53.8633 9.33905C54.9388 8.6828 56.1693 8.35468 57.5547 8.35468ZM57.5547 10.5422C56.5885 10.5422 55.7409 10.7792 55.0117 11.2531C54.2826 11.7088 53.7174 12.3195 53.3164 13.0851C52.9336 13.8325 52.7422 14.6529 52.7422 15.5461C52.7422 16.4211 52.9336 17.2414 53.3164 18.007C53.7174 18.7544 54.2826 19.3651 55.0117 19.8391C55.7409 20.2948 56.5885 20.5226 57.5547 20.5226C58.5391 20.5226 59.3867 20.2948 60.0977 19.8391C60.8268 19.3651 61.3828 18.7544 61.7656 18.007C62.1667 17.2414 62.3672 16.4211 62.3672 15.5461C62.3672 14.6529 62.1667 13.8325 61.7656 13.0851C61.3828 12.3195 60.8268 11.7088 60.0977 11.2531C59.3867 10.7792 58.5391 10.5422 57.5547 10.5422ZM74.5625 8.35468C75.9479 8.35468 77.1784 8.6828 78.2539 9.33905C79.3294 9.9953 80.168 10.8703 80.7695 11.9641C81.3893 13.0578 81.6992 14.2518 81.6992 15.5461C81.6992 16.8404 81.3893 18.0344 80.7695 19.1281C80.168 20.2036 79.3294 21.0695 78.2539 21.7258C77.1784 22.382 75.9479 22.7101 74.5625 22.7101C73.1771 22.7101 71.9466 22.382 70.8711 21.7258C69.7956 21.0695 68.9479 20.2036 68.3281 19.1281C67.7266 18.0344 67.4258 16.8404 67.4258 15.5461C67.4258 14.2518 67.7266 13.0578 68.3281 11.9641C68.9479 10.8703 69.7956 9.9953 70.8711 9.33905C71.9466 8.6828 73.1771 8.35468 74.5625 8.35468ZM74.5625 10.5422C73.5964 10.5422 72.7487 10.7792 72.0195 11.2531C71.2904 11.7088 70.7253 12.3195 70.3242 13.0851C69.9414 13.8325 69.75 14.6529 69.75 15.5461C69.75 16.4211 69.9414 17.2414 70.3242 18.007C70.7253 18.7544 71.2904 19.3651 72.0195 19.8391C72.7487 20.2948 73.5964 20.5226 74.5625 20.5226C75.5469 20.5226 76.3945 20.2948 77.1055 19.8391C77.8346 19.3651 78.3906 18.7544 78.7734 18.007C79.1745 17.2414 79.375 16.4211 79.375 15.5461C79.375 14.6529 79.1745 13.8325 78.7734 13.0851C78.3906 12.3195 77.8346 11.7088 77.1055 11.2531C76.3945 10.7792 75.5469 10.5422 74.5625 10.5422ZM96.9023 8.62811L90.4766 22.3H89.082L82.9297 8.62811H85.6094L89.7383 18.6906L94.2227 8.62811H96.9023ZM114.293 3.97968L107.266 14.7805V22.3H104.613V15.1359L97.5859 3.97968H100.539L105.898 12.6203L111.34 3.97968H114.293ZM123.07 8.35468C124.456 8.35468 125.686 8.6828 126.762 9.33905C127.837 9.9953 128.676 10.8703 129.277 11.9641C129.897 13.0578 130.207 14.2518 130.207 15.5461C130.207 16.8404 129.897 18.0344 129.277 19.1281C128.676 20.2036 127.837 21.0695 126.762 21.7258C125.686 22.382 124.456 22.7101 123.07 22.7101C121.685 22.7101 120.454 22.382 119.379 21.7258C118.303 21.0695 117.456 20.2036 116.836 19.1281C116.234 18.0344 115.934 16.8404 115.934 15.5461C115.934 14.2518 116.234 13.0578 116.836 11.9641C117.456 10.8703 118.303 9.9953 119.379 9.33905C120.454 8.6828 121.685 8.35468 123.07 8.35468ZM123.07 10.5422C122.104 10.5422 121.257 10.7792 120.527 11.2531C119.798 11.7088 119.233 12.3195 118.832 13.0851C118.449 13.8325 118.258 14.6529 118.258 15.5461C118.258 16.4211 118.449 17.2414 118.832 18.007C119.233 18.7544 119.798 19.3651 120.527 19.8391C121.257 20.2948 122.104 20.5226 123.07 20.5226C124.055 20.5226 124.902 20.2948 125.613 19.8391C126.342 19.3651 126.898 18.7544 127.281 18.007C127.682 17.2414 127.883 16.4211 127.883 15.5461C127.883 14.6529 127.682 13.8325 127.281 13.0851C126.898 12.3195 126.342 11.7088 125.613 11.2531C124.902 10.7792 124.055 10.5422 123.07 10.5422ZM145.082 8.62811V16.7219C145.082 17.925 144.827 18.9641 144.316 19.8391C143.806 20.7141 143.113 21.3885 142.238 21.8625C141.363 22.3364 140.379 22.5734 139.285 22.5734C138.191 22.5734 137.207 22.3364 136.332 21.8625C135.457 21.3885 134.764 20.7141 134.254 19.8391C133.743 18.9641 133.488 17.925 133.488 16.7219V8.62811H135.812V16.7219C135.812 17.9068 136.159 18.8182 136.852 19.4562C137.562 20.076 138.374 20.3859 139.285 20.3859C140.197 20.3859 140.999 20.076 141.691 19.4562C142.402 18.8182 142.758 17.9068 142.758 16.7219V8.62811H145.082Z" fill="#F2F2F2"/>
<path d="M1.95982 10.5246C1.95982 10.2588 1.86131 10.0041 1.68595 9.81619C1.51058 9.62828 1.27282 9.52274 1.02477 9.52274C0.776842 9.52274 0.539091 9.62828 0.363713 9.81619C0.188348 10.0041 0.0898438 10.259 0.0898438 10.5246C0.0898438 10.7903 0.188348 11.045 0.363713 11.233C0.539078 11.4209 0.776838 11.5264 1.02489 11.5264C1.27282 11.5264 1.51057 11.4209 1.68595 11.233C1.86131 11.0451 1.95982 10.7903 1.95982 10.5246Z" fill="#F2F2F2"/>
<path d="M17.5613 0.159249C17.5107 0.0279566 17.3705 -0.0346212 17.2479 0.0194315L0.148554 7.57277C0.0260223 7.62682 -0.0323796 7.77721 0.0182252 7.9085L0.337127 8.73752C0.779501 8.5416 1.27651 8.54211 1.71839 8.73922C2.16032 8.93633 2.51103 9.31367 2.69293 9.78802L18.3457 2.87417C18.4682 2.81995 18.5266 2.66956 18.4762 2.53826L17.5613 0.159249ZM3.36855 8.73663L1.7209 7.63052L3.03551 7.04992L4.683 8.15603L3.36855 8.73663ZM6.48692 7.35923L4.83927 6.25312L6.15389 5.67252L7.80138 6.77863L6.48692 7.35923ZM9.6053 5.98183L7.95781 4.87572L9.27243 4.29512L10.9198 5.40123L9.6053 5.98183ZM12.7235 4.60443L11.0759 3.49832L12.3905 2.91772L14.038 4.02383L12.7235 4.60443ZM15.8419 3.22703L14.1942 2.12092L15.5089 1.54014L17.1563 2.64625L15.8419 3.22703Z" fill="#F2F2F2"/>
<path d="M19.9998 20.4871V10.7818C19.9998 10.6398 19.8922 10.5247 19.7598 10.5247H2.82952C2.82888 11.0374 2.63856 11.529 2.30025 11.8915C1.96193 12.254 1.50317 12.458 1.02466 12.4586V20.4873C1.02466 20.8885 1.17329 21.2733 1.43807 21.5569C1.70287 21.8406 2.06185 22 2.43631 22H18.5881C18.9626 22 19.3216 21.8406 19.5864 21.5569C19.8512 21.2733 20 20.8885 20 20.4873L19.9998 20.4871ZM10.573 11.2205H11.9949L10.865 12.9159H9.4432L10.573 11.2205ZM4.11931 12.9159H2.69747L3.8273 11.2205H5.24914L4.11931 12.9159ZM7.20012 11.2205H8.62196L7.49213 12.9159H6.07029L7.20012 11.2205ZM10.5123 21.2445C9.57519 21.2445 8.67627 20.8455 8.01362 20.1355C7.35081 19.4253 6.97847 18.4622 6.97847 17.4579C6.97847 16.4538 7.35068 15.4906 8.01346 14.7806C8.6761 14.0704 9.57503 13.6714 10.5122 13.6714C11.4495 13.6714 12.3482 14.0704 13.011 14.7804C13.6738 15.4906 14.046 16.4536 14.046 17.4579C14.0449 18.4617 13.6724 19.4241 13.0099 20.1341C12.3474 20.844 11.4493 21.2431 10.5123 21.2445L10.5123 21.2445ZM14.2381 12.9159H12.8163L13.9461 11.2205H15.3679L14.2381 12.9159ZM16.1891 12.9159L17.3189 11.2205H18.7408L17.6109 12.9159H16.1891Z" fill="#F2F2F2"/>
<ellipse cx="11.0663" cy="17.6513" rx="4.29099" ry="4.31476" fill="#F2F2F2"/>
</svg>
