<svg width="26" height="24" viewBox="0 0 26 24" fill="none" xmlns="http://www.w3.org/2000/svg">
<path d="M25.5137 0H3.17396C2.90524 0 2.68763 0.262929 2.68763 0.58761V1.21001C1.16769 1.49235 0 3.08501 0 4.99861C0 6.9122 1.16792 8.50513 2.68763 8.78721V23.4124C2.68763 23.7371 2.90524 24 3.17396 24H25.5137C25.7824 24 26 23.7371 26 23.4124V0.587858C26 0.263177 25.7824 0.000248602 25.5137 0.000248602V0ZM21.2773 1.17519C21.2804 1.17897 21.2838 1.18679 21.2869 1.19056L23.7282 4.41473L21.255 4.415L18.8008 1.17516L21.2773 1.17519ZM9.87405 5.58643H12.357L9.96044 8.7758H7.47747L9.87405 5.58643ZM6.16556 8.77179H3.72744C5.05517 8.48945 6.10151 7.20234 6.30949 5.58242H8.56523L6.16556 8.77179ZM13.6687 5.58643H16.1517L13.7551 8.7758H11.2723L13.6687 5.58643ZM17.4602 5.58643H19.9432L17.5466 8.7758H15.0636L17.4602 5.58643ZM21.2551 5.58643H23.7381L21.3415 8.7758H18.8585L21.2551 5.58643ZM17.4859 1.17519C17.489 1.17897 17.4923 1.18679 17.4955 1.19056L19.9367 4.41473H17.4602L15.0063 1.17517L17.4859 1.17519ZM13.6912 1.17519C13.6943 1.17897 13.6977 1.18679 13.7008 1.19056L16.1421 4.41473H13.6656L11.2147 1.17517L13.6912 1.17519ZM9.89947 1.17519C9.9026 1.17897 9.90594 1.18679 9.90907 1.19056L12.3503 4.41473H9.87382L7.41987 1.17517L9.89947 1.17519ZM3.66019 1.17519H6.10791C6.11103 1.17897 6.11438 1.18679 6.11751 1.19056L8.55877 4.41473H6.30948C6.09835 2.77162 5.02015 1.46505 3.66025 1.21376L3.66019 1.17519ZM0.972557 4.99886C0.972557 3.53372 1.9613 2.33913 3.17385 2.33913C4.38645 2.33913 5.37514 3.53379 5.37514 4.99886C5.37514 6.464 4.38639 7.6586 3.17385 7.6586C1.96124 7.6586 0.972557 6.46394 0.972557 4.99886V4.99886ZM25.0275 22.8245H3.66025V9.94664H25.0304V22.8245H25.0275ZM25.0275 8.77166H22.6501L25.0275 5.60921V8.77166ZM25.0275 4.38762L22.5925 1.17505H25.0275V4.38762Z" fill="#D2D1D1"/>
<path d="M12.1868 19.3841C12.2543 19.4148 12.325 19.4286 12.3957 19.4286C12.494 19.4286 12.5923 19.4008 12.672 19.3452L17.1462 16.3399C17.2659 16.2592 17.3334 16.1342 17.3334 16.0007C17.3334 15.8673 17.2627 15.7422 17.1462 15.6616L12.6598 12.6534C12.5186 12.559 12.3312 12.545 12.1716 12.6173C12.0151 12.6897 11.9167 12.8341 11.9167 12.9955L11.929 19.009C11.929 19.1645 12.0303 19.3119 12.1869 19.3842L12.1868 19.3841ZM16.0867 16.0008L12.8594 18.1692L12.8502 13.8323L16.0867 16.0008Z" fill="#D2D1D1"/>
</svg>
