<svg width="24" height="24" viewBox="0 0 24 24" fill="none" xmlns="http://www.w3.org/2000/svg">
<path d="M23.2222 10.1095H3.79393L3.73259 9.45911L22.5604 3.53579C22.9686 3.40743 23.1906 2.98684 23.0562 2.59636L22.3397 0.511931C22.2055 0.121475 21.7659 -0.090929 21.3577 0.0374311L0.381002 6.66087C0.135836 6.73832 -0.0210715 6.96708 0.00229771 7.21303L0.585273 13.3648C0.608433 13.6081 0.833361 13.7872 1.0875 13.765L1.11734 13.7628V22.9705C1.11734 23.5391 1.59912 24 2.19339 24H22.285C22.8793 24 23.3611 23.5391 23.3611 22.9705V13.7797C23.7242 13.717 24 13.4136 24 13.0481V10.8539C23.9998 10.4428 23.6515 10.1097 23.222 10.1097L23.2222 10.1095ZM11.4174 10.8631H15.2998L12.9546 13.0355H9.07212L11.4174 10.8631ZM13.8659 18.8816L14.0944 20.1155C14.1426 20.3758 13.8478 20.5742 13.5955 20.4514L12.3991 19.8688C12.299 19.8201 12.1792 19.8201 12.079 19.8688L10.8827 20.4514C10.6304 20.5742 10.3356 20.3758 10.3838 20.1155L10.6122 18.8816C10.6314 18.7782 10.5943 18.6728 10.5133 18.5995L9.5456 17.7256C9.34154 17.5413 9.45422 17.2203 9.7361 17.1822L11.0736 17.0021C11.1856 16.987 11.2824 16.9219 11.3325 16.8279L11.9307 15.7052C12.0569 15.4685 12.4213 15.4685 12.5475 15.7052L13.1457 16.8279C13.1958 16.9219 13.2926 16.9872 13.4046 17.0021L14.7423 17.1822C15.0242 17.2201 15.1369 17.5413 14.933 17.7256L13.9653 18.5995C13.8839 18.673 13.847 18.7784 13.866 18.8816H13.8659ZM11.1236 6.33688L8.20994 4.98506L11.8962 3.82385L14.8099 5.17568L11.1236 6.33688ZM4.38417 6.19016L7.29761 7.54199L3.65975 8.68781L3.57525 7.7905C3.52935 7.30442 3.22743 6.89957 2.80826 6.68658L4.38417 6.19016ZM22.3916 2.78764L18.9127 3.88333L15.9992 2.53151L19.827 1.32579L22.3916 2.78764ZM1.2332 8.00063C1.20441 7.69442 1.4406 7.42373 1.76089 7.39619C2.08096 7.36864 2.36389 7.59461 2.39268 7.90103C2.42148 8.20725 2.18528 8.47793 1.865 8.50547C1.54471 8.53302 1.26199 8.30705 1.2332 8.00063ZM2.27042 12.8259C1.95035 12.8534 1.66742 12.6272 1.63862 12.321C1.60983 12.0148 1.84602 11.7441 2.16631 11.7166C2.48638 11.689 2.76931 11.915 2.79811 12.2214C2.8269 12.5276 2.59071 12.7981 2.27042 12.8259ZM3.741 13.0359C3.9219 12.78 4.01559 12.4651 3.98429 12.1334L3.86452 10.8632H7.09551L4.75026 13.0357H3.74097L3.741 13.0359ZM17.7321 22.3913H6.74561C6.55803 22.3913 6.40613 22.2248 6.40613 22.0196C6.40613 21.8144 6.55824 21.6479 6.74561 21.6479H17.7321C17.9197 21.6479 18.0718 21.8144 18.0718 22.0196C18.0718 22.225 17.9197 22.3913 17.7321 22.3913ZM20.8654 13.0359H16.983L19.3282 10.8634H23.2107L20.8654 13.0359Z" fill="#F2F2F2"/>
</svg>
