<svg width="23" height="24" viewBox="0 0 23 24" fill="none" xmlns="http://www.w3.org/2000/svg">
<path d="M8.63107 2.4952C6.97529 2.49056 5.38659 3.17742 4.21919 4.40265C4.01141 4.61927 4.01141 4.97057 4.21919 5.18722C4.42678 5.40403 4.76344 5.40403 4.97105 5.18722C5.94174 4.17411 7.25819 3.60504 8.63107 3.60504C10.0039 3.60504 11.3206 4.17411 12.2913 5.18722C12.4989 5.40403 12.8355 5.40403 13.0431 5.18722C13.2507 4.97059 13.2507 4.61929 13.0431 4.40265C11.8757 3.17737 10.2869 2.49054 8.63107 2.4952Z" fill="#D1D1D1"/>
<path d="M15.0718 14.9428C16.5542 13.1919 17.3253 10.9077 17.2215 8.57384C17.1179 6.24001 16.1477 4.03993 14.5165 2.43987C12.8851 0.839672 10.721 -0.0349796 8.48231 0.0010718C6.24381 0.0371142 4.10639 0.981071 2.52335 2.63311C0.940221 4.2851 0.0355752 6.5153 0.00102658 8.85127C-0.0335134 11.1873 0.804715 13.4456 2.33817 15.1479C3.8718 16.8501 5.98 17.8626 8.21645 17.9708C10.453 18.0789 12.6421 17.2744 14.3199 15.7274L22.0924 23.8375C22.3 24.0542 22.6367 24.0542 22.8443 23.8375C23.0519 23.6209 23.0519 23.2696 22.8443 23.053L15.0718 14.9428ZM3.29928 14.5703C2.24473 13.4698 1.5265 12.0679 1.23543 10.5415C0.944515 9.01526 1.09389 7.43313 1.66452 5.99531C2.2353 4.55753 3.20175 3.32855 4.44181 2.46389C5.68187 1.59942 7.13966 1.13793 8.63113 1.13793C10.1224 1.13793 11.5804 1.59942 12.8205 2.46389C14.0603 3.32855 15.0269 4.55753 15.5976 5.99531C16.1683 7.43309 16.3176 9.01526 16.0266 10.5415C15.7357 12.0679 15.0175 13.4698 13.963 14.5703C12.5475 16.0436 10.6302 16.8707 8.63118 16.8707C6.63215 16.8707 4.7145 16.0435 3.29928 14.5703Z" fill="#D1D1D1"/>
</svg>
