<svg width="19" height="19" viewBox="0 0 19 19" fill="none" xmlns="http://www.w3.org/2000/svg">
<path d="M11.9649 12.9499C11.9074 12.8924 11.809 12.8868 11.7407 12.9415C11.7407 12.9415 11.6852 12.9869 11.5952 13.0545C10.3844 13.9624 8.88007 14.5002 7.25025 14.5002C3.24598 14.5002 0 11.2542 0 7.25025C0 3.24598 3.24598 0 7.25025 0C11.2542 0 14.5002 3.24598 14.5002 7.25025C14.5002 8.89088 13.955 10.4042 13.0363 11.6194C12.9742 11.701 12.9408 11.7414 12.9408 11.7414C12.8881 11.8073 12.8919 11.9071 12.9498 11.965L13.4486 12.4637C13.5061 12.5213 13.6142 12.5527 13.6976 12.5335C13.6976 12.5335 13.7321 12.5213 13.8235 12.5105C14.264 12.4585 14.723 12.6015 15.0605 12.9395L18.5608 16.4394C19.1464 17.0253 19.1464 17.975 18.5608 18.561C17.9749 19.1465 17.0252 19.1465 16.4392 18.561L12.9393 15.0607C12.5951 14.7168 12.4531 14.247 12.5135 13.7992C12.5246 13.7158 12.5333 13.6949 12.5333 13.6949C12.5525 13.6164 12.5215 13.5066 12.4636 13.4487L11.9649 12.9499ZM7.25022 13.0001C10.4257 13.0001 13 10.4258 13 7.25031C13 4.07442 10.4257 1.50014 7.25022 1.50014C4.07433 1.50014 1.50005 4.07442 1.50005 7.25031C1.50005 10.4258 4.07433 13.0001 7.25022 13.0001V13.0001Z" fill="#FDFDFD"/>
</svg>
