<svg width="12" height="12" viewBox="0 0 12 12" fill="none" xmlns="http://www.w3.org/2000/svg">
<path d="M11.9765 4.54682C11.9198 4.36438 11.7692 4.2316 11.5882 4.20395L8.02489 3.66183L6.43119 0.280817C6.35008 0.109003 6.18289 0 5.99974 0C5.81658 0 5.6494 0.108903 5.56828 0.280817L3.9749 3.66183L0.411894 4.20395C0.230721 4.2316 0.0800969 4.36437 0.0235332 4.54682C-0.0330251 4.72927 0.0142105 4.92949 0.145353 5.06325L2.72384 7.69481L2.11516 11.411C2.08429 11.6 2.15836 11.7911 2.30659 11.9038C2.3904 11.9673 2.48953 11.9999 2.58949 11.9999C2.66615 11.9999 2.74291 11.9808 2.81324 11.942L5.99995 10.1877L9.18693 11.9422C9.34904 12.0312 9.54524 12.0167 9.69356 11.9039C9.84159 11.7912 9.91586 11.6001 9.88478 11.4111L9.27621 7.69492L11.8545 5.06336C11.986 4.9294 12.033 4.72929 11.9764 4.54682H11.9765Z" fill="#E7B025"/>
</svg>
