<svg width="306" height="73" viewBox="0 0 306 73" fill="none" xmlns="http://www.w3.org/2000/svg">
<path d="M153 73C237.5 73 306 71.2091 306 69C306 66.7909 237.5 65 153 65C68.5004 65 0 66.7909 0 69C0 71.2091 68.5004 73 153 73Z" fill="#959595"/>
<path d="M143.054 29.7111V25.4972H121.862V25.7607V29.7111V63.6851V67.899H126.1H143.054V63.6851H126.1V29.7111H143.054Z" fill="white"/>
<path d="M153.386 25.4973V67.8989H174.578V25.4973H153.386ZM170.34 63.6851H157.624V29.7111H170.34V63.6851Z" fill="#F9DCDC"/>
<path d="M94.5766 63.6851V25.7607H90.338V63.6851V67.899H94.5766H111.53V63.6851H94.5766Z" fill="#F9DCDC"/>
<path d="M80.8013 29.7111V25.4972H59.6089V25.7607V29.7111V44.4595V48.6734V63.6851V67.899H63.8474H80.8013V63.6851H63.8474V48.6734H80.8013V44.4595H63.8474V29.7111H80.8013Z" fill="white"/>
<path d="M246.632 29.7111V25.4972H225.44V25.7607V29.7111V44.4595V48.6734V63.6851V67.899H229.678H246.632V63.6851H229.678V48.6734H246.632V44.4595H229.678V29.7111H246.632Z" fill="#F9DCDC"/>
<path d="M45.8879 26.1316V60.958L34.7124 49.8478L34.6869 49.8734L34.6632 49.8498L23.2386 61.208V26H19V68.1383H23.2386V67.1672L34.689 55.7834L45.8879 66.9175V68.2699H50.1264V26.1316H45.8879Z" fill="#F9DCDC"/>
<path d="M211.4 25.7607V26.7315L199.95 38.1153L188.751 26.9815V25.6291H184.512V67.7674H188.751V32.9407L199.926 44.0512L199.952 44.0256L199.975 44.0489L211.4 32.6907V67.899H215.639V25.7607H211.4Z" fill="white"/>
<path d="M283.218 55.3074L269.27 67.9463L270.433 69.2288L285.432 55.6378H285.445V70.0577H287.033L287.034 55.6352H287.049L302.047 69.2262L303.21 67.9437L289.261 55.3034V49.7562H287.034L287.034 24.1619H288.673V26.2334H289.875V20.9275H288.673V22.7259H287.034V12.3339C288.102 11.6539 289.17 10.9734 290.238 10.2929C290.795 9.93865 290.851 9.68731 290.498 9.13144C290.207 8.67437 289.915 8.21628 289.623 7.75975C289.866 7.47294 290.107 7.18562 290.352 6.89781C290.474 6.7549 290.496 6.66218 290.424 6.5512C289.415 4.97727 288.414 3.39829 287.402 1.82644C287.363 1.76462 287.236 1.71192 287.144 1.73523C286.758 1.83708 286.371 1.94096 285.985 2.04332C285.654 1.52241 285.323 1.00352 284.992 0.482627C284.636 -0.0747786 284.385 -0.132038 283.829 0.221664C278.999 3.29648 274.169 6.3713 269.337 9.44611C269.218 9.52263 269.098 9.59763 268.956 9.68833C271.1 13.0576 273.22 16.3882 275.365 19.7586C275.507 19.6689 275.625 19.5929 275.745 19.5169C278.978 17.4591 282.211 15.4012 285.444 13.3428L285.444 22.7249H284.502V24.1609H285.444V49.7565H283.215V55.3067L283.218 55.3074ZM284.084 9.85906L284.539 9.55451C284.849 9.34523 285.272 9.42732 285.481 9.73897L285.636 9.96902C285.845 10.2801 285.761 10.7017 285.451 10.912L284.997 11.2171C284.685 11.4259 284.262 11.3433 284.055 11.0321L283.9 10.8026C283.69 10.4904 283.773 10.0683 284.084 9.85906ZM281.39 11.6712L281.844 11.3651C282.155 11.1563 282.577 11.2379 282.787 11.5501L282.941 11.7796C283.151 12.0907 283.068 12.5128 282.757 12.7226L282.302 13.0287C281.991 13.2375 281.569 13.1538 281.36 12.8427L281.205 12.6132C280.995 12.302 281.079 11.8804 281.39 11.6712V11.6712ZM279.347 7.55039L278.893 7.85544C278.582 8.06473 278.159 7.98263 277.949 7.67049L277.796 7.44094C277.588 7.12981 277.67 6.70771 277.981 6.49792L278.434 6.19287C278.747 5.98358 279.168 6.06669 279.376 6.37782L279.531 6.60787C279.741 6.9185 279.659 7.3406 279.347 7.55039V7.55039ZM280.233 8.68445C280.544 8.47567 280.966 8.55726 281.175 8.86941L281.33 9.09895C281.539 9.41109 281.457 9.83218 281.145 10.041L280.691 10.346C280.38 10.5553 279.958 10.4722 279.748 10.1616L279.595 9.93202C279.386 9.61988 279.468 9.19879 279.779 8.989L280.233 8.68445ZM282.04 5.7378L281.587 6.04286C281.276 6.25214 280.854 6.17004 280.645 5.8584L280.49 5.62835C280.282 5.31773 280.365 4.89563 280.675 4.68533L281.129 4.38028C281.439 4.171 281.863 4.25309 282.072 4.56524L282.225 4.79478C282.435 5.10692 282.352 5.52852 282.04 5.7378ZM282.928 6.87287C283.24 6.6641 283.662 6.7467 283.871 7.05783L284.025 7.28788C284.234 7.5985 284.151 8.02061 283.841 8.22989L283.386 8.53596C283.075 8.74473 282.653 8.66315 282.444 8.351L282.291 8.12145C282.081 7.81083 282.163 7.38873 282.474 7.17843L282.928 6.87287ZM284.736 3.92726L284.282 4.23232C283.969 4.44109 283.547 4.3595 283.339 4.04736L283.184 3.81781C282.975 3.50669 283.057 3.08458 283.369 2.87479L283.822 2.57024C284.135 2.36096 284.556 2.44305 284.765 2.7552L284.92 2.98475C285.129 3.29537 285.047 3.71697 284.736 3.92726V3.92726ZM286.536 6.41832L286.081 6.72338C285.77 6.93216 285.347 6.84956 285.139 6.53842L284.983 6.30888C284.775 5.99775 284.856 5.57565 285.169 5.36586L285.623 5.0608C285.934 4.85203 286.355 4.93463 286.564 5.24576L286.719 5.47531C286.928 5.78694 286.846 6.20956 286.536 6.41832V6.41832ZM286.749 9.21956L286.594 8.99001C286.385 8.67889 286.468 8.25678 286.78 8.04699L287.233 7.74194C287.545 7.53265 287.967 7.61475 288.176 7.9269L288.329 8.15644C288.538 8.46757 288.457 8.88967 288.146 9.09845L287.692 9.40452C287.38 9.6143 286.958 9.53069 286.749 9.21956V9.21956Z" fill="#CECECE"/>
<path d="M269.137 10.8745C269.237 10.8628 269.397 10.9677 269.458 11.0625C271.011 13.4857 272.554 15.9159 274.104 18.3406C274.214 18.5113 274.211 18.6334 274.106 18.8022C273.342 20.0224 272.588 21.2491 271.831 22.4724C271.659 22.7516 271.484 23.0283 271.296 23.3298C268.78 19.3763 266.288 15.4598 263.78 11.5216C263.833 11.5018 263.859 11.4856 263.887 11.4825C265.636 11.2748 267.385 11.0655 269.137 10.8745L269.137 10.8745Z" fill="#CECECE"/>
<path d="M275.044 26.1338C274.741 26.0598 274.48 25.9954 274.184 25.923C274.699 23.8256 275.202 21.7739 275.71 19.7043C276.014 19.7839 276.283 19.8548 276.566 19.9308C276.055 22.012 275.552 24.0642 275.044 26.1336L275.044 26.1338Z" fill="#CECECE"/>
<path d="M263.28 8.81359C263.356 8.52525 263.424 8.26378 263.506 7.95468C265.577 8.36817 267.651 8.78217 269.741 9.19972C269.681 9.50427 269.628 9.77688 269.569 10.0683C267.462 9.64716 265.385 9.23266 263.28 8.81359H263.28Z" fill="#CECECE"/>
<path d="M252.089 23.9733L251.859 22.8503L252.219 23.0136C252.231 23.0193 252.246 23.0145 252.253 23.002C252.26 22.9895 252.256 22.974 252.245 22.9664L251.915 22.7492L252.988 22.3459C253.001 22.3405 253.008 22.3263 253.004 22.3128C253 22.2994 252.987 22.2912 252.973 22.294L251.85 22.5247L252.013 22.1651C252.019 22.1524 252.014 22.1373 252.002 22.1304C251.989 22.1235 251.974 22.1275 251.966 22.139L251.749 22.4689L251.345 21.3959C251.34 21.3824 251.326 21.3752 251.312 21.3791C251.299 21.3829 251.291 21.3966 251.294 21.4104L251.524 22.5334L251.165 22.3701C251.152 22.3644 251.137 22.3692 251.13 22.3817C251.123 22.3942 251.127 22.4096 251.139 22.4172L251.469 22.6344L250.396 23.0378C250.382 23.0428 250.375 23.057 250.379 23.0705C250.383 23.0839 250.397 23.0921 250.41 23.0893L251.533 22.8586L251.37 23.2182C251.364 23.2308 251.369 23.246 251.382 23.2529C251.394 23.2598 251.41 23.2558 251.417 23.2442L251.634 22.9144L252.038 23.9875C252.043 24.0006 252.057 24.0079 252.07 24.004C252.084 24.0001 252.092 23.9871 252.089 23.9733L252.089 23.9733ZM251.666 22.8469C251.663 22.8374 251.654 22.8306 251.644 22.8295C251.634 22.8284 251.624 22.8329 251.618 22.8414L251.56 22.9294L251.604 22.8334C251.608 22.8241 251.606 22.8136 251.6 22.8053C251.594 22.7975 251.583 22.7936 251.573 22.7957L250.734 22.968L251.536 22.6664C251.546 22.6628 251.552 22.6544 251.553 22.644C251.554 22.6402 251.553 22.6367 251.552 22.6334C251.551 22.6274 251.547 22.622 251.541 22.6184L251.453 22.5604L251.549 22.6039C251.558 22.6081 251.569 22.6066 251.577 22.6003C251.585 22.594 251.589 22.5837 251.587 22.5736L251.415 21.7342L251.716 22.5363C251.72 22.5458 251.728 22.5527 251.739 22.5537C251.749 22.5547 251.759 22.5503 251.764 22.5418L251.822 22.4539L251.779 22.5498C251.775 22.5591 251.776 22.5696 251.782 22.5779C251.789 22.5858 251.799 22.5896 251.809 22.5876L252.648 22.4152L251.846 22.7168C251.837 22.7204 251.83 22.7288 251.829 22.7392C251.828 22.7493 251.832 22.7593 251.841 22.7649L251.929 22.8229L251.833 22.7794C251.824 22.7752 251.813 22.7767 251.805 22.783C251.797 22.7893 251.793 22.7997 251.795 22.8097L251.968 23.6491L251.666 22.8469Z" fill="white"/>
<path d="M268.166 25.4241L268.388 26.3988L268.092 26.2723C268.071 26.2635 268.049 26.2722 268.038 26.2915C268.028 26.3106 268.034 26.3348 268.053 26.3465L268.325 26.5182L267.398 26.8894C267.377 26.8974 267.367 26.9199 267.373 26.9406C267.38 26.9612 267.401 26.9738 267.422 26.9688L268.398 26.7466L268.271 27.0429C268.262 27.0633 268.271 27.0858 268.29 27.0965C268.309 27.1065 268.333 27.0999 268.345 27.0819L268.517 26.8091L268.888 27.7357C268.896 27.7559 268.918 27.7665 268.939 27.76C268.96 27.7536 268.972 27.732 268.967 27.7109L268.745 26.7362L269.042 26.8627C269.062 26.8715 269.085 26.8627 269.095 26.8437C269.105 26.8246 269.099 26.8004 269.08 26.7887L268.807 26.617L269.736 26.2449C269.756 26.2369 269.767 26.2143 269.76 26.1937C269.754 26.173 269.732 26.1604 269.711 26.1654L268.736 26.3877L268.862 26.0913C268.871 26.0709 268.862 26.0485 268.843 26.0377C268.824 26.0277 268.8 26.0343 268.789 26.0521L268.617 26.3249L268.245 25.397C268.237 25.3768 268.214 25.3663 268.194 25.3727C268.173 25.3791 268.161 25.4029 268.166 25.4241L268.166 25.4241ZM268.57 26.4341C268.576 26.4492 268.59 26.4591 268.605 26.4601C268.612 26.4605 268.619 26.4594 268.625 26.4575C268.626 26.4638 268.629 26.4694 268.634 26.4749C268.643 26.4869 268.66 26.4918 268.675 26.4888L269.213 26.366L268.701 26.5714C268.686 26.5777 268.676 26.5909 268.675 26.6064C268.674 26.6117 268.675 26.6173 268.676 26.6226L268.677 26.6257C268.671 26.6269 268.665 26.6302 268.66 26.6345C268.648 26.6449 268.643 26.6607 268.646 26.6758L268.769 27.214L268.563 26.7016C268.557 26.6867 268.544 26.6766 268.528 26.6756C268.521 26.6752 268.515 26.6763 268.509 26.6782C268.508 26.6719 268.504 26.6663 268.5 26.6608C268.49 26.649 268.474 26.6439 268.459 26.6469L267.92 26.7697L268.433 26.5643C268.448 26.558 268.458 26.5448 268.459 26.5293C268.46 26.5225 268.459 26.5159 268.456 26.51C268.463 26.5088 268.468 26.5055 268.474 26.5012C268.486 26.4916 268.491 26.4757 268.488 26.4599L268.365 25.9217L268.57 26.4341Z" fill="white"/>
<path d="M262.749 15.7409C262.745 15.7204 262.727 15.7046 262.706 15.7078L261.248 15.8197L261.509 15.3954C261.52 15.3773 261.514 15.3547 261.498 15.341C261.48 15.3298 261.457 15.3311 261.445 15.347L261.124 15.7248L260.783 14.303C260.778 14.2828 260.759 14.2694 260.739 14.2726C260.718 14.2758 260.703 14.2946 260.706 14.3152L260.818 15.7728L260.393 15.5121C260.375 15.5009 260.353 15.5067 260.341 15.5226C260.33 15.5406 260.331 15.5639 260.348 15.5777L260.726 15.9017L259.304 16.2418C259.284 16.2473 259.27 16.2658 259.273 16.2864C259.277 16.3069 259.295 16.3227 259.316 16.3195L260.774 16.2076L260.513 16.6297C260.501 16.6478 260.507 16.6704 260.523 16.6819C260.539 16.6957 260.564 16.6917 260.576 16.6759L260.9 16.2977L261.24 17.7196C261.246 17.7397 261.264 17.7531 261.285 17.7499C261.305 17.7467 261.321 17.7279 261.318 17.7074L261.206 16.2497L261.628 16.5108C261.646 16.5219 261.669 16.5183 261.68 16.5003C261.692 16.4844 261.69 16.4589 261.674 16.4474L261.296 16.1256L262.718 15.7855C262.738 15.7801 262.752 15.7615 262.749 15.7409ZM261.203 16.0655C261.187 16.0702 261.177 16.0812 261.172 16.096C261.17 16.1104 261.175 16.1259 261.186 16.136L261.237 16.1793L261.18 16.1439C261.167 16.1366 261.151 16.1367 261.138 16.1435C261.125 16.1502 261.118 16.1654 261.118 16.1816L261.197 17.2096L260.958 16.2067C260.956 16.1908 260.942 16.1811 260.928 16.1765C260.923 16.1749 260.918 16.1756 260.911 16.1767C260.902 16.1781 260.893 16.1818 260.888 16.1897L260.844 16.2409L260.88 16.184C260.887 16.1711 260.887 16.1548 260.88 16.1418C260.871 16.1292 260.858 16.1219 260.842 16.1221L259.814 16.2015L260.817 15.9623C260.832 15.9575 260.842 15.9465 260.847 15.9317C260.852 15.917 260.845 15.9018 260.834 15.8918L260.783 15.8484L260.84 15.8838C260.853 15.8911 260.869 15.8932 260.882 15.8842C260.895 15.8775 260.902 15.8624 260.902 15.8461L260.822 14.8181L261.061 15.821C261.064 15.8369 261.077 15.8466 261.092 15.8513C261.107 15.856 261.122 15.8488 261.132 15.838L261.175 15.7868L261.14 15.8437C261.133 15.8566 261.133 15.8729 261.139 15.8859C261.146 15.8988 261.161 15.9058 261.178 15.9057L262.208 15.8258L261.203 16.0655Z" fill="white"/>
<path d="M260.279 32.4534L259.105 32.6225L259.273 32.3046C259.29 32.2722 259.279 32.2341 259.248 32.2146C259.218 32.1952 259.179 32.2019 259.157 32.2312L258.942 32.5193L258.591 31.3862C258.581 31.3519 258.546 31.3313 258.509 31.3396C258.474 31.3474 258.452 31.381 258.455 31.4167L258.625 32.5907L258.307 32.4227C258.274 32.4056 258.236 32.4162 258.217 32.4471C258.197 32.4778 258.204 32.5169 258.233 32.5388L258.519 32.7545L257.386 33.1052C257.352 33.1149 257.331 33.15 257.34 33.1868C257.347 33.2216 257.381 33.2444 257.417 33.2405L258.591 33.0714L258.423 33.3894C258.406 33.4217 258.416 33.4598 258.447 33.4794C258.478 33.4988 258.517 33.4921 258.539 33.4628L258.754 33.1747L259.105 34.3078C259.114 34.3421 259.15 34.3627 259.186 34.3544C259.221 34.3465 259.244 34.3129 259.24 34.2773L259.071 33.1033L259.389 33.2713C259.421 33.2883 259.459 33.2778 259.479 33.2469C259.498 33.2162 259.492 33.177 259.462 33.1552L259.174 32.94L260.309 32.5867C260.343 32.577 260.364 32.5419 260.355 32.5051C260.348 32.4704 260.314 32.4475 260.279 32.4534ZM259.005 32.8459C258.98 32.8535 258.963 32.8738 258.958 32.8991C258.957 32.9035 258.956 32.9077 258.957 32.9135C258.954 32.9163 258.948 32.9176 258.945 32.9205C258.924 32.9354 258.913 32.96 258.917 32.9857L258.98 33.4301L258.847 33.0013C258.84 32.9767 258.819 32.9589 258.794 32.9544C258.79 32.9534 258.784 32.9547 258.78 32.9535C258.779 32.9496 258.776 32.9442 258.773 32.9409C258.758 32.9199 258.733 32.9092 258.708 32.913L258.265 32.9762L258.692 32.8435C258.717 32.8359 258.734 32.8156 258.739 32.7903C258.74 32.7859 258.741 32.7817 258.74 32.7759C258.743 32.7731 258.749 32.7718 258.752 32.769C258.773 32.754 258.784 32.7294 258.78 32.7037L258.717 32.2593L258.85 32.6881C258.857 32.7127 258.878 32.7305 258.903 32.735C258.907 32.736 258.913 32.7347 258.917 32.7359C258.918 32.7398 258.921 32.7452 258.924 32.7485C258.939 32.7695 258.964 32.7802 258.989 32.7764L259.432 32.7132L259.005 32.8459Z" fill="white"/>
<path d="M261.107 23.9342L260.353 24.0428L260.461 23.8385C260.472 23.8177 260.465 23.7932 260.445 23.7807C260.426 23.7682 260.4 23.7725 260.386 23.7913L260.248 23.9765L260.023 23.2483C260.016 23.2262 259.994 23.213 259.97 23.2183C259.948 23.2234 259.933 23.245 259.936 23.2679L260.044 24.0224L259.84 23.9144C259.819 23.9034 259.795 23.9102 259.782 23.9301C259.77 23.9498 259.774 23.975 259.793 23.989L259.977 24.1276L259.248 24.353C259.226 24.3593 259.213 24.3818 259.218 24.4055C259.224 24.4278 259.245 24.4425 259.268 24.44L260.023 24.3313L259.915 24.5357C259.904 24.5565 259.91 24.581 259.93 24.5935C259.95 24.606 259.975 24.6017 259.989 24.5829L260.128 24.3977L260.353 25.1259C260.359 25.148 260.382 25.1612 260.405 25.1559C260.428 25.1508 260.442 25.1292 260.44 25.1063L260.331 24.3518L260.536 24.4598C260.556 24.4707 260.581 24.4639 260.593 24.4441C260.606 24.4244 260.602 24.3992 260.583 24.3851L260.398 24.2468L261.127 24.0198C261.149 24.0136 261.162 23.991 261.157 23.9674C261.152 23.9451 261.13 23.9304 261.107 23.9342ZM260.289 24.1864C260.273 24.1913 260.262 24.2043 260.259 24.2206C260.258 24.2234 260.257 24.2261 260.258 24.2298C260.256 24.2316 260.252 24.2325 260.25 24.2343C260.237 24.2439 260.23 24.2597 260.232 24.2762L260.273 24.5619L260.187 24.2863C260.183 24.2704 260.17 24.259 260.153 24.2561C260.15 24.2555 260.147 24.2563 260.144 24.2556C260.143 24.2531 260.141 24.2496 260.14 24.2475C260.13 24.234 260.114 24.2271 260.098 24.2295L259.813 24.2701L260.088 24.1848C260.103 24.18 260.115 24.1669 260.118 24.1506C260.118 24.1479 260.119 24.1451 260.118 24.1414C260.121 24.1396 260.124 24.1388 260.126 24.1369C260.14 24.1274 260.147 24.1115 260.144 24.095L260.103 23.8094L260.189 24.085C260.194 24.1008 260.207 24.1122 260.223 24.1151C260.226 24.1158 260.23 24.1149 260.232 24.1157C260.233 24.1182 260.235 24.1216 260.237 24.1238C260.246 24.1373 260.262 24.1442 260.279 24.1417L260.563 24.1011L260.289 24.1864Z" fill="white"/>
</svg>
